<?xml version="1.0" standalone="no"?>
<!DOCTYPE svg PUBLIC "-//W3C//DTD SVG 1.1//EN" "http://www.w3.org/Graphics/SVG/1.1/DTD/svg11.dtd" >
<svg xmlns="http://www.w3.org/2000/svg" xmlns:xlink="http://www.w3.org/1999/xlink" version="1.1">
<metadata></metadata>
<defs>
<font id="royal_crescentbold" horiz-adv-x="473" >
<font-face units-per-em="2048" ascent="1638" descent="-410" />
<missing-glyph horiz-adv-x="503" />
<glyph unicode="&#xd;" horiz-adv-x="508" />
<glyph horiz-adv-x="1231" />
<glyph unicode=" "  horiz-adv-x="503" />
<glyph unicode="&#x09;" horiz-adv-x="503" />
<glyph unicode="&#xa0;" horiz-adv-x="503" />
<glyph unicode="!" d="M0 1605h223v-1200h-223v1200zM0 177h223v-177h-223v177z" />
<glyph unicode="&#x22;" horiz-adv-x="814" d="M341 1603h223v-513h-223v513zM0 1603h223v-513h-223v513z" />
<glyph unicode="#" horiz-adv-x="1332" d="M751 1652l-63 -454h-220l58 423l-220 31l-63 -454h-243v-223h212l-55 -397h-157v-223h126l-56 -405l221 -30l60 435h221l-56 -405l221 -30l60 435h285v223h-254l55 397h199v223h-168l58 423zM437 975h221l-55 -397h-221z" />
<glyph unicode="$" horiz-adv-x="1372" d="M532 913l2 6l-1 -4zM900 827q-53 45 -129 88q-30 17 -68 36l-34 17l-34 17l-53 26v0h-1v0q-201 102 -248 199q-17 35 -14 69q1 13 6 27l3 11l4 9q27 69 110 102q29 12 63 18l26 4l20 2q98 5 184 -31q86 -37 119 -99l189 100q-53 100 -159 163q-95 56 -214 74v134h-214 v-139q-116 -23 -200 -87q-85 -66 -123 -163q-133 -339 352 -584v1l56 -28q151 -74 208 -119q94 -73 118 -172q26 -108 -28 -191q-54 -84 -168 -112q-127 -31 -248 14q-121 44 -210 155l-167 -134q167 -207 410 -251v-135h214v134l26 4l26 5q200 50 300 208q100 159 53 352 q-39 164 -175 276z" />
<glyph unicode="%" horiz-adv-x="1706" d="M258 1280q36 34 86 34t86 -34q36 -35 36 -83q0 -49 -36 -83q-36 -35 -86 -35t-86 35q-35 34 -35 83q0 48 35 83zM587 1437q-101 100 -243 100t-243 -100t-101 -240q0 -141 101 -241t243 -100t243 100t101 241q0 140 -101 240zM1198 302q-36 -35 -86 -35t-86 35 q-36 34 -36 83q0 48 36 83q36 34 86 34t86 -34q35 -35 35 -83q0 -49 -35 -83zM868 144q101 -100 244 -100q142 0 243 100t101 241q0 140 -101 240t-243 100q-143 0 -244 -100t-101 -240q0 -141 101 -241zM1212 1461l-196 106l-792 -1450l196 -107z" />
<glyph unicode="&#x26;" horiz-adv-x="1501" d="M1251 773v223h-20q-172 0 -279 -129q-96 -117 -96 -277v-92q0 -136 -62 -217q-81 -106 -262 -106q-128 0 -218 89q-91 88 -91 213t91 214q90 89 218 89h223v222l-245 1q-91 0 -155 62q-64 63 -64 151q0 89 64 151q64 63 155 63q86 0 161 -46q74 -45 102 -115l207 83 q-53 133 -184 217q-132 84 -286 84q-183 0 -313 -128q-129 -128 -129 -309q0 -190 143 -320q-98 -74 -154 -182q-57 -111 -57 -237q0 -217 156 -371t376 -154q249 0 398 148q149 149 149 398v95v7q1 10 2 22q5 34 17 62q39 89 133 89h20z" />
<glyph unicode="'" d="M0 1603h223v-513h-223v513z" />
<glyph unicode="(" horiz-adv-x="629" d="M175 1623q-175 -424 -175 -917q0 -513 175 -917l204 88q-156 362 -156 829q0 447 156 828z" />
<glyph unicode=")" horiz-adv-x="630" d="M0 1534q157 -381 157 -828q0 -467 -157 -829l205 -88q175 404 175 917q0 493 -175 917z" />
<glyph unicode="*" horiz-adv-x="1042" d="M696 1532l-189 -92v204h-223v-204l-185 92l-99 -199l222 -110l-144 -215l185 -125l134 199l131 -199l187 125l-145 215l222 110z" />
<glyph unicode="+" horiz-adv-x="1058" d="M293 1226v-292h-293v-223h293v-293h222v293h293v223h-293v292h-222z" />
<glyph unicode="," d="M0 198v-197h98l-82 -183h71l136 183v197h-223z" />
<glyph unicode="-" horiz-adv-x="989" d="M739 934v-223h-739v223h739z" />
<glyph unicode="." d="M0 0h223v197h-223v-197z" />
<glyph unicode="/" horiz-adv-x="798" d="M328 1840l220 -37l-328 -1933l-220 37z" />
<glyph unicode="0" horiz-adv-x="1358" d="M863 1255q104 -175 104 -452q0 -278 -104 -453t-268 -175t-268 175t-104 453q0 277 104 452t268 175t268 -175zM1024 190q166 237 166 613q0 375 -166 613q-166 237 -429 237t-429 -237q-166 -238 -166 -613q0 -376 166 -613q166 -238 429 -238t429 238z" />
<glyph unicode="1" horiz-adv-x="732" d="M482 1635l-481 -145l60 -215l198 66v-1341h223v1635z" />
<glyph unicode="2" horiz-adv-x="1240" d="M588 1389q104 -61 133 -179q30 -123 -39 -236l-648 -974h914v223h-498l418 629l2 3q120 193 67 408q-51 209 -236 318q-122 72 -254 72q-284 0 -447 -260l189 -118q97 156 258 156q71 0 141 -42z" />
<glyph unicode="3" horiz-adv-x="1278" d="M318 261q-41 34 -72 79q-24 35 -41 75l-205 -87q76 -179 228 -278q151 -98 350 -98q220 0 376 154t156 371q0 126 -57 237q-56 108 -154 182q144 130 144 320q0 181 -130 309t-312 128q-155 0 -286 -84q-132 -84 -185 -217l208 -82q27 69 102 114q74 46 161 46 q90 0 155 -63q64 -62 64 -151q0 -88 -64 -151q-65 -62 -155 -62l-112 -1v-222h89q128 0 219 -89q90 -89 90 -214t-90 -213q-91 -89 -219 -89q-156 0 -260 86z" />
<glyph unicode="4" horiz-adv-x="1491" d="M867 1604v-1021h-466l349 561l-189 117l-561 -901h867v-360h223v360h151v223h-151v1021h-223z" />
<glyph unicode="5" horiz-adv-x="1410" d="M440 1382h530v223h-725l-109 -812l168 53q176 56 312 38q137 -18 215 -107q70 -77 84 -192q14 -114 -32 -218q-15 -32 -35 -60q-25 -36 -58 -63q-85 -69 -208 -69q-165 0 -284 132q-38 42 -66 93q-10 17 -17 33q-3 5 -5 10l-1 3l-1 1l-104 -40l-104 -40l1 -1v-2l2 -4 q3 -8 7 -16q11 -24 25 -49q44 -78 102 -142q183 -201 445 -201q168 0 302 86t202 238q74 164 49 343q-24 179 -137 306q-37 42 -82 75q-57 41 -123 68q-171 67 -391 31z" />
<glyph unicode="6" horiz-adv-x="1424" d="M342 291q-119 116 -119 279v5l1 7q0 10 2 21q3 31 9 65q34 130 142 214q110 86 251 86q167 0 286 -116q119 -117 119 -281t-119 -280t-286 -116t-286 116zM178 1176q-178 -289 -178 -602v-3q0 -256 184 -437q184 -182 444 -182q259 0 444 182q184 181 184 437t-184 438 q-185 182 -444 182q-85 0 -168 -23q156 209 397 354l-176 153q-325 -211 -503 -499z" />
<glyph unicode="7" horiz-adv-x="1300" d="M0 1604v-223h727l-517 -1351l208 -79l632 1653h-1050z" />
<glyph unicode="8" horiz-adv-x="1354" d="M331 281q-108 106 -108 256t108 256q109 106 262 106t262 -106q108 -106 108 -256t-108 -256q-109 -106 -262 -106t-262 106zM706 1387q47 -46 47 -110t-47 -109q-47 -46 -113 -46t-113 46q-46 45 -46 109t46 110q47 45 113 45t113 -45zM975 1277q0 156 -112 267 t-270 111t-270 -111t-112 -267q0 -131 83 -235q-134 -78 -213 -210q-81 -136 -81 -295q0 -242 174 -413q174 -172 419 -172t419 172q174 171 174 413q0 159 -81 295q-79 132 -213 210q83 103 83 235z" />
<glyph unicode="9" horiz-adv-x="1424" d="M914 1313q119 -116 119 -279v-5l-1 -7q0 -10 -2 -21q-3 -31 -9 -65q-34 -130 -142 -214q-110 -86 -251 -86q-167 0 -286 116q-119 117 -119 281t119 280t286 116t286 -116zM1078 428q178 289 178 602v3q0 256 -184 437q-184 182 -444 182q-259 0 -444 -182 q-184 -181 -184 -437t184 -438q185 -182 444 -182q85 0 168 23q-156 -209 -397 -354l176 -153q325 211 503 499z" />
<glyph unicode=":" horiz-adv-x="474" d="M0 197h224v-197h-224v197zM0 999h224v-197h-224v197z" />
<glyph unicode=";" horiz-adv-x="474" d="M0 802h224v197h-224v-197zM0 198v-197h98l-82 -183h71l136 183v197h-223z" />
<glyph unicode="&#x3c;" horiz-adv-x="975" d="M0 787l572 -540l153 162l-400 378l400 378l-153 162z" />
<glyph unicode="=" horiz-adv-x="785" d="M0 884h535v198h-535v-198zM0 552h535v198h-535v-198z" />
<glyph unicode="&#x3e;" horiz-adv-x="974" d="M152 1327l572 -540l-572 -540l-152 162l399 378l-399 378z" />
<glyph unicode="?" horiz-adv-x="1291" d="M648 1393q72 -39 116 -106q13 -19 22 -41q13 -28 18 -56q15 -74 -16 -147q-30 -68 -77 -104q-30 -23 -105 -54l-21 -9l-23 -10q-25 -12 -46 -23q-52 -30 -87 -70q-92 -104 -92 -303v-102h223v102q0 107 30 147q21 28 102 62l18 8l19 8q21 9 39 18q44 23 80 50 q92 72 144 192q49 113 38 232q-12 119 -80 223q-75 113 -197 179q-121 66 -257 66q-160 0 -295 -87q-136 -87 -201 -231l203 -92q39 85 118 136q80 51 175 51q80 0 152 -39zM333 0h223v197h-223v-197z" />
<glyph unicode="@" horiz-adv-x="2123" d="M1045 620q-47 -123 -192 -115l-6 1h-8q-10 1 -20 3q-25 5 -46 17q-58 34 -76 119q-23 111 25 236q49 126 131 168q105 54 241 -85zM1247 1673q-231 49 -472 -29q-271 -87 -460 -293t-235 -464q-80 -446 180 -719q125 -132 319 -202q192 -69 429 -69q107 0 217 14l-29 221 q-253 -32 -456 17q-203 50 -319 172q-182 192 -122 526q35 195 185 356t359 229q184 59 354 25t295 -155q79 -77 115 -220q35 -142 8 -273q-16 -77 -52 -132q-47 -73 -123 -101q-55 -20 -110 17q-58 38 -49 99q12 86 78 551l-220 31l-8 -54q-114 70 -231 66q-45 -2 -87 -14 q-33 -10 -62 -24q-158 -82 -236 -284q-73 -189 -36 -365q29 -140 125 -224t236 -92l31 -1q187 0 301 125q73 -52 162 -63q91 -11 183 23q122 45 203 147q82 103 113 249q40 187 -13 385q-53 197 -173 314q-168 163 -400 211z" />
<glyph unicode="A" horiz-adv-x="1800" d="M678 1604l-678 -1560l205 -89l172 398h797l172 -398l204 89l-673 1560h-199zM777 1273l301 -698h-604z" />
<glyph unicode="B" horiz-adv-x="1330" d="M223 765h403q129 0 221 -80q92 -79 92 -191t-92 -192q-92 -79 -221 -79h-403v542zM223 1381h317q89 0 153 -57q63 -58 63 -140q0 -77 -58 -134t-141 -62h-334v393zM1085 748q-74 113 -200 177q94 115 94 259q0 174 -129 297q-128 123 -310 123l-540 1v-1605h626 q221 0 379 145q157 145 157 349q0 137 -77 254z" />
<glyph unicode="C" horiz-adv-x="1679" d="M1116 -17q157 42 313 151l-127 183q-119 -83 -231 -115q-91 -27 -208 -27q-265 0 -452 184q-188 184 -188 444q0 259 188 443q187 184 452 184q234 0 439 -142l127 183q-156 109 -313 151q-114 31 -253 31q-357 0 -610 -249q-119 -118 -185 -271q-68 -158 -68 -330 q0 -173 68 -331q66 -153 185 -271q120 -117 274 -182q161 -67 336 -67q139 0 253 31z" />
<glyph unicode="D" horiz-adv-x="1560" d="M223 1381h291q271 0 463 -170q192 -169 192 -409q0 -239 -192 -409t-463 -170h-291v1158zM514 0q363 0 620 235q122 111 189 255q69 149 69 312t-69 312q-67 144 -189 255q-257 235 -620 235h-291v1h-223v-1605h514z" />
<glyph unicode="E" horiz-adv-x="1356" d="M0 1605v-1605h1106v223h-883v568h701v223h-701v367h861v223z" />
<glyph unicode="F" horiz-adv-x="1334" d="M0 1605v-1605h223v764h701v223h-701v394h861v223h-861v1h-223z" />
<glyph unicode="G" horiz-adv-x="1727" d="M1116 -17q157 42 313 151l48 33v753h-598v-223h375v-411q-179 -111 -391 -111q-265 0 -452 184q-188 184 -188 444q0 259 188 443q187 184 452 184q234 0 439 -142l127 183q-156 109 -313 151q-114 31 -253 31q-357 0 -610 -249q-119 -118 -185 -271q-68 -158 -68 -330 q0 -173 68 -331q66 -153 185 -271q120 -117 274 -182q161 -67 336 -67q139 0 253 31z" />
<glyph unicode="H" horiz-adv-x="1632" d="M1159 1605v-613h-936v613h-223v-1605h223v769h936v-769h223v1605h-223z" />
<glyph unicode="I" d="M0 0h223v1605h-223v-1605z" />
<glyph unicode="J" horiz-adv-x="1087" d="M710 76q127 125 127 301v1227h-223v-1227q0 -84 -61 -144q-61 -59 -147 -59q-66 0 -120 37q-55 37 -77 97l-209 -77q46 -125 158 -203q112 -77 248 -77q178 0 304 125z" />
<glyph unicode="K" horiz-adv-x="1415" d="M1012 1647l-789 -742v698h-223v-1604h223v755l755 -802l162 153l-678 720l703 660z" />
<glyph unicode="L" horiz-adv-x="1289" d="M0 1605v-1605h1039v223h-816v1382h-223z" />
<glyph unicode="M" horiz-adv-x="1910" d="M1425 1604l-595 -872l-595 872h-235v-1604h223v1227l607 -890l608 890v-1227h222v1604h-235z" />
<glyph unicode="N" horiz-adv-x="1721" d="M1248 1605v-1248l-1011 1247h-237v-1604h223v1268l1028 -1268h220v1605h-223z" />
<glyph unicode="O" horiz-adv-x="1894" d="M1316 1246q187 -184 187 -443q0 -260 -187 -444q-188 -184 -453 -184t-452 184q-188 184 -188 444q0 259 188 443q187 184 452 184t453 -184zM1473 201q120 118 185 271q68 158 68 331q0 172 -68 330q-65 153 -185 271q-119 118 -274 182q-161 67 -336 67 q-357 0 -610 -249q-119 -118 -185 -271q-68 -158 -68 -330q0 -173 68 -331q66 -153 185 -271q120 -117 274 -182q161 -67 336 -67q357 0 610 249z" />
<glyph unicode="P" horiz-adv-x="1361" d="M223 1381h319q143 0 245 -88q101 -88 101 -212t-101 -212q-102 -88 -245 -88h-319v600zM0 0h223v558h319q235 0 402 153q167 154 167 370t-167 370q-166 153 -402 153l-542 1v-1605z" />
<glyph unicode="Q" horiz-adv-x="1894" d="M1316 1246q187 -185 187 -444q0 -144 -64 -273q-61 -125 -171 -213l-197 175l-149 -166l136 -121q-95 -30 -195 -30q-265 0 -452 184q-188 184 -188 444q0 259 188 444q187 184 452 184t453 -184zM1244 39l191 -171l148 166l-147 132q136 119 212 282q78 168 78 354 q0 173 -68 331q-65 152 -185 270q-119 118 -274 183q-161 66 -336 66q-357 0 -610 -249q-119 -118 -185 -270q-68 -158 -68 -331t68 -331q66 -153 185 -270q120 -118 274 -183q161 -67 336 -67q201 0 381 88z" />
<glyph unicode="R" horiz-adv-x="1292" d="M223 1381h283q123 0 210 -76q87 -75 87 -181t-87 -181t-210 -75h-283v513zM223 645h153l483 -694l183 127l-405 582q169 41 278 169q111 130 111 295q0 198 -152 339q-153 141 -368 141h-506v-1605h223v646z" />
<glyph unicode="S" horiz-adv-x="1321" d="M1058 198q95 157 47 341q-43 165 -190 278q-58 44 -140 87q-33 17 -74 37l-37 17l-36 16l-59 27q-216 100 -267 196q-19 33 -16 66q1 12 5 25l4 10l3 8q24 56 76 87q39 24 92 33q89 15 182 -14t146 -88l166 149q-92 102 -238 150q-147 47 -292 23q-247 -41 -337 -253 q-148 -348 381 -594h1l3 -1l58 -27q163 -74 226 -118q102 -73 127 -170q24 -93 -22 -169q-57 -95 -193 -126q-140 -32 -274 13t-232 157l-168 -146q110 -126 252 -192t295 -68q359 0 511 246z" />
<glyph unicode="T" horiz-adv-x="1550" d="M539 1605v-1h-539v-223h539v-1381h223v1381h538v223h-538v1h-223z" />
<glyph unicode="U" horiz-adv-x="1630" d="M1157 632q0 -190 -137 -324t-330 -134t-330 134t-137 324v972h-223v-972q0 -282 202 -481q203 -200 488 -200q286 0 488 200q202 199 202 481v972h-223v-972z" />
<glyph unicode="V" horiz-adv-x="1800" d="M1346 1649l-573 -1318l-568 1317l-205 -88l673 -1560h200l677 1560z" />
<glyph unicode="W" horiz-adv-x="2467" d="M2006 1652l-407 -1243l-389 1195h-200l-391 -1195l-407 1240l-212 -69l518 -1580h201l391 1192l388 -1192h201l518 1582z" />
<glyph unicode="X" horiz-adv-x="1752" d="M1330 1651l-578 -678l-580 678l-169 -145l603 -705l-606 -705l169 -144l583 678l581 -678l169 144l-603 705l601 705z" />
<glyph unicode="Y" horiz-adv-x="1648" d="M1217 1652l-518 -723l-518 723l-181 -130l589 -823v-699h223v704l586 818z" />
<glyph unicode="Z" horiz-adv-x="1497" d="M0 1604v-223h849l-847 -1381h1228v223h-830l847 1381h-1247z" />
<glyph unicode="[" horiz-adv-x="578" d="M0 1604v-1822h328v223h-105v1376h104v223h-327z" />
<glyph unicode="\" horiz-adv-x="750" d="M175 1840l-175 -33l325 -1948l175 33z" />
<glyph unicode="]" horiz-adv-x="578" d="M1 1603v-223h104v-1376h-105v-223h328v1822h-327z" />
<glyph unicode="^" horiz-adv-x="1019" d="M274 2246l-274 -446h261l124 201l123 -201h261l-273 446h-222z" />
<glyph unicode="_" horiz-adv-x="1099" d="M0 -225h849v225h-849v-225z" />
<glyph unicode="`" horiz-adv-x="733" d="M0 2124l374 -331l109 126l-374 331z" />
<glyph unicode="a" horiz-adv-x="1840" d="M698 1604l-698 -1604h250l147 353h797l152 -353h244l-693 1604h-199zM797 1273l301 -698h-604z" />
<glyph unicode="b" horiz-adv-x="1330" d="M223 765h403q129 0 221 -80q92 -79 92 -191t-92 -192q-92 -79 -221 -79h-403v542zM223 1381h317q89 0 153 -57q63 -58 63 -140q0 -77 -58 -134t-141 -62h-334v393zM1085 748q-74 113 -200 177q94 115 94 259q0 174 -129 297q-128 123 -310 123l-540 1v-1605h626 q221 0 379 145q157 145 157 349q0 137 -77 254z" />
<glyph unicode="c" horiz-adv-x="1553" d="M1303 316l-1 1q-119 -83 -231 -115q-91 -27 -208 -27q-265 0 -452 184q-188 184 -188 444q0 259 188 443q187 184 452 184q234 0 439 -142l1 1v259q-93 49 -187 74q-114 31 -253 31q-357 0 -610 -249q-119 -118 -185 -271q-68 -158 -68 -330q0 -173 68 -331 q66 -153 185 -271q120 -117 274 -182q161 -67 336 -67q139 0 253 31q94 25 187 74v259z" />
<glyph unicode="d" horiz-adv-x="1560" d="M223 1381h291q271 0 463 -170q192 -169 192 -409q0 -239 -192 -409t-463 -170h-291v1158zM514 0q363 0 620 235q122 111 189 255q69 149 69 312t-69 312q-67 144 -189 255q-257 235 -620 235h-291v1h-223v-1605h514z" />
<glyph unicode="e" horiz-adv-x="1356" d="M0 1605v-1605h1106v223h-883v568h701v223h-701v367h861v223z" />
<glyph unicode="f" horiz-adv-x="1334" d="M0 1605v-1605h223v764h701v223h-701v394h861v223h-861v1h-223z" />
<glyph unicode="g" horiz-adv-x="1727" d="M1302 1549q-93 48 -186 73q-114 31 -253 31q-357 0 -610 -249q-119 -118 -185 -271q-68 -158 -68 -330q0 -173 68 -331q66 -153 185 -271q120 -117 274 -182q161 -67 336 -67q139 0 253 31q157 42 313 151l48 33v753h-598v-223h375v-411q-179 -111 -391 -111 q-265 0 -452 184q-188 184 -188 444q0 259 188 443q187 184 452 184q234 0 439 -142v261z" />
<glyph unicode="h" horiz-adv-x="1632" d="M1159 1605v-613h-936v613h-223v-1605h223v769h936v-769h223v1605h-223z" />
<glyph unicode="i" d="M0 0h223v1605h-223v-1605z" />
<glyph unicode="j" horiz-adv-x="1087" d="M710 76q127 125 127 301v1227h-223v-1227q0 -84 -61 -144q-61 -59 -147 -59q-66 0 -120 37q-55 37 -77 97l-209 -77q46 -125 158 -203q112 -77 248 -77q178 0 304 125z" />
<glyph unicode="k" horiz-adv-x="1505" d="M917 1603l-694 -698v698h-223v-1604h223v755l705 -754h312l-778 825l793 779z" />
<glyph unicode="l" horiz-adv-x="1289" d="M0 1605v-1605h1039v223h-816v1382h-223z" />
<glyph unicode="m" horiz-adv-x="1910" d="M1425 1604l-595 -872l-595 872h-235v-1604h223v1227l607 -890l608 890v-1227h222v1604h-235z" />
<glyph unicode="n" horiz-adv-x="1721" d="M1248 1605v-1248l-1011 1247h-237v-1604h223v1268l1028 -1268h220v1605h-223z" />
<glyph unicode="o" horiz-adv-x="1894" d="M1316 1246q187 -184 187 -443q0 -260 -187 -444q-188 -184 -453 -184t-452 184q-188 184 -188 444q0 259 188 443q187 184 452 184t453 -184zM1473 201q120 118 185 271q68 158 68 331q0 172 -68 330q-65 153 -185 271q-119 118 -274 182q-161 67 -336 67 q-357 0 -610 -249q-119 -118 -185 -271q-68 -158 -68 -330q0 -173 68 -331q66 -153 185 -271q120 -117 274 -182q161 -67 336 -67q357 0 610 249z" />
<glyph unicode="p" horiz-adv-x="1361" d="M223 1381h319q143 0 245 -88q101 -88 101 -212t-101 -212q-102 -88 -245 -88h-319v600zM0 0h223v558h319q235 0 402 153q167 154 167 370t-167 370q-166 153 -402 153l-542 1v-1605z" />
<glyph unicode="q" horiz-adv-x="1894" d="M1316 1246q187 -185 187 -444q0 -144 -64 -273q-61 -125 -171 -213l-197 175l-149 -166l136 -121q-95 -30 -195 -30q-265 0 -452 184q-188 184 -188 444q0 259 188 444q187 184 452 184t453 -184zM1244 39l191 -171l148 166l-147 132q136 119 212 282q78 168 78 354 q0 173 -68 331q-65 152 -185 270q-119 118 -274 183q-161 66 -336 66q-357 0 -610 -249q-119 -118 -185 -270q-68 -158 -68 -331t68 -331q66 -153 185 -270q120 -118 274 -183q161 -67 336 -67q201 0 381 88z" />
<glyph unicode="r" horiz-adv-x="1348" d="M223 1381h283q123 0 210 -76q87 -75 87 -181t-87 -181t-210 -75h-283v513zM1098 -1l-461 661q169 41 278 169q111 130 111 295q0 198 -152 339q-153 141 -368 141h-506v-1605h223v646h153l451 -646h271z" />
<glyph unicode="s" horiz-adv-x="1321" d="M1058 198q95 157 47 341q-43 165 -190 278q-58 44 -140 87q-33 17 -74 37l-37 17l-36 16l-59 27q-216 100 -267 196q-19 33 -16 66q1 12 5 25l4 10l3 8q24 56 76 87q39 24 92 33q89 15 182 -14t146 -88l166 149q-92 102 -238 150q-147 47 -292 23q-247 -41 -337 -253 q-148 -348 381 -594h1l3 -1l58 -27q163 -74 226 -118q102 -73 127 -170q24 -93 -22 -169q-57 -95 -193 -126q-140 -32 -274 13t-232 157l-168 -146q110 -126 252 -192t295 -68q359 0 511 246z" />
<glyph unicode="t" horiz-adv-x="1550" d="M539 1605v-1h-539v-223h539v-1381h223v1381h538v223h-538v1h-223z" />
<glyph unicode="u" horiz-adv-x="1630" d="M1157 632q0 -190 -137 -324t-330 -134t-330 134t-137 324v972h-223v-972q0 -282 202 -481q203 -200 488 -200q286 0 488 200q202 199 202 481v972h-223v-972z" />
<glyph unicode="v" horiz-adv-x="1842" d="M1350 1604l-554 -1273l-553 1273h-243l696 -1604h200l696 1604h-242z" />
<glyph unicode="w" horiz-adv-x="2481" d="M1997 1609l-391 -1200l-389 1195h-200l-391 -1195l-392 1200h-234l525 -1609h201l391 1192l388 -1192h201l525 1609h-234z" />
<glyph unicode="x" horiz-adv-x="1798" d="M1261 1605l-480 -631l-481 631h-298l617 -803l-619 -802h297l484 631l484 -631h283l-616 802l612 803h-283z" />
<glyph unicode="y" horiz-adv-x="1767" d="M1233 1604l-474 -675l-483 675h-276l649 -905v-699h223v704l645 900h-284z" />
<glyph unicode="z" horiz-adv-x="1497" d="M0 1604v-223h849l-847 -1381h1228v223h-830l847 1381h-1247z" />
<glyph unicode="{" horiz-adv-x="659" d="M338 573l-76 115q3 5 76 120v466q0 128 71 155l-81 208q-32 -13 -60 -32q-40 -27 -70 -64q-82 -102 -82 -267v-400l-116 -186l116 -181v-399q0 -165 82 -267q30 -38 70 -64q28 -20 60 -32l80 208q-70 27 -70 155v465z" />
<glyph unicode="|" horiz-adv-x="428" d="M0 -240h178v2194h-178v-2194z" />
<glyph unicode="}" horiz-adv-x="659" d="M71 108q0 -128 -70 -155l80 -208q32 12 60 32q40 26 70 64q82 102 82 267v399l116 181l-116 186v400q0 165 -82 267q-30 37 -70 64q-28 19 -60 32l-81 -208q71 -27 71 -155v-466q73 -115 76 -120l-76 -115v-465z" />
<glyph unicode="~" horiz-adv-x="1313" d="M623 692q-31 10 -70 25l-34 14l-34 14l-34 14l-34 14q-37 15 -64 23q-67 19 -96 6q-31 -14 -60 -98l-197 67q57 169 171 221q85 39 198 14q44 -10 99 -30l50 -19l48 -20q46 -19 68 -28q39 -15 67 -24q69 -19 99 -5q35 16 65 110l198 -63q-58 -182 -176 -237 q-54 -24 -118 -24t-146 26z" />
<glyph unicode="&#xa1;" d="M223 0h-223v1200h223v-1200zM223 1428h-223v177h223v-177z" />
<glyph unicode="&#xa2;" horiz-adv-x="1338" d="M395 486q-80 59 -125 147q-47 90 -47 192q0 164 112 285q111 121 275 139zM284 91l215 -61l43 155q60 -10 117 -10q106 0 192 24q119 32 237 114l-127 183q-141 -98 -302 -98q-25 0 -56 4l232 820q60 -23 126 -68l127 183q-96 67 -193 100l42 150l-214 60l-49 -172h-15 q-272 0 -466 -191q-193 -190 -193 -459q0 -178 92 -330q89 -148 240 -234z" />
<glyph unicode="&#xa3;" horiz-adv-x="1288" d="M0 0h1038v223h-693q36 98 61 194q32 122 43 230l1 7h337v223h-356q-12 42 -32 88q-8 18 -18 39l-17 37q-58 116 -51 176q9 92 85 159q75 66 169 66q83 0 149 -42q67 -43 86 -108l214 63q-40 137 -166 224q-125 86 -283 86q-182 0 -319 -123q-138 -123 -157 -302 q-9 -82 16 -164q10 -33 27 -70l14 -32l16 -31q20 -42 30 -66h-116v-223h148q-19 -155 -85 -339q-21 -58 -44 -112q-7 -17 -14 -31q-2 -5 -4 -9l-1 -2v-1z" />
<glyph unicode="&#xa4;" horiz-adv-x="1046" d="M594 1342l80 77l122 -119l-88 -87q35 -62 35 -150v-64q0 -88 -35 -150l88 -87l-122 -119l-80 77q-79 -57 -196 -57t-196 57l-80 -77l-122 119l88 87q-35 62 -35 150v64q0 88 35 150l-88 87l122 119l80 -77q79 57 196 57t196 -57zM565 956q6 21 6 47v55q0 25 -6 48 q-12 40 -45 71q-16 18 -38 29q-36 22 -84 22t-84 -22q-21 -11 -37 -29q-34 -31 -46 -71q-6 -23 -6 -48v-55q0 -26 6 -47q12 -40 46 -71q16 -18 37 -29q36 -22 84 -22t84 22q22 11 38 29q33 31 45 71z" />
<glyph unicode="&#xa5;" horiz-adv-x="1674" d="M1424 1551l-588 -816h285v-207h-305v-107h305v-207h-305v-229h-208v229h-305v207h305v107h-305v207h281l-584 816l169 122l542 -756l544 756z" />
<glyph unicode="&#xa6;" horiz-adv-x="428" d="M0 966h178v988h-178v-988zM0 -240h178v988h-178v-988z" />
<glyph unicode="&#xa7;" horiz-adv-x="1137" d="M263 888q-3 -8 -4 -14q-1 -16 8 -34q33 -66 187 -137l67 -29l17 -9l17 -7q17 -9 22 -12q46 21 71 63q29 46 13 107q-8 30 -59 80q-57 57 -112 73q-36 10 -72 10q-21 0 -41 -3q-37 -6 -63 -22q-33 -20 -47 -54zM850 359q37 -138 -36 -257q-81 -131 -251 -171 q-60 -14 -124 -14q-118 0 -225 49q-109 50 -191 143l-23 27l149 128l23 -27q65 -77 158 -108q93 -29 189 -8q90 19 129 83q29 47 13 106q-17 64 -82 113q-41 28 -163 84q-11 5 -44 19q-397 184 -284 450q46 106 128 146q-218 148 -128 359q68 159 255 192q110 17 219 -19 q108 -33 180 -111l22 -26l-142 -130l-24 26q-37 39 -98 58q-65 20 -123 9q-36 -4 -63 -21q-33 -20 -47 -53l-4 -14q-3 -7 -4 -13q-1 -15 8 -34q13 -26 50 -56q50 -40 137 -81l95 -43l22 -11l11 -5l10 -6l8 -4q55 -28 104 -63q114 -87 146 -211q37 -139 -36 -258 q-30 -49 -64 -76q73 -67 100 -172z" />
<glyph unicode="&#xa8;" horiz-adv-x="931" d="M0 1971h179v-178h-179v178zM502 1971h179v-178h-179v178z" />
<glyph unicode="&#xa9;" horiz-adv-x="883" d="M422 1700l31 44q-38 26 -76 37q-27 7 -61 7q-86 0 -147 -60t-61 -145t61 -146q61 -60 147 -60q34 0 61 8q38 10 76 36l-31 44q-49 -34 -106 -34q-64 0 -109 44q-46 45 -46 108q0 62 46 107q45 44 109 44q57 0 106 -34zM131 1398q-77 77 -77 185q0 109 77 186t186 77 q108 0 185 -77t77 -186q0 -108 -77 -185t-185 -77q-109 0 -186 77zM93 1807q-93 -93 -93 -224q0 -130 93 -223t224 -93q130 0 223 93t93 223q0 131 -93 224t-223 93q-131 0 -224 -93z" />
<glyph unicode="&#xab;" horiz-adv-x="1153" d="M903 1190l-260 -404l259 -403h-244l-260 403l261 404h244zM495 1190l-260 -404l259 -403h-234l-260 403l261 404h234z" />
<glyph unicode="&#xac;" horiz-adv-x="1555" d="M1076 981h-1086v238h1325v-602h-239v364z" />
<glyph unicode="&#xad;" horiz-adv-x="989" d="M739 934v-223h-739v223h739z" />
<glyph unicode="&#xae;" horiz-adv-x="883" d="M131 1391q-77 77 -77 185q0 109 77 186t186 77q108 0 185 -77t77 -186q0 -108 -77 -185t-185 -77q-109 0 -186 77zM93 1800q-93 -93 -93 -224q0 -130 93 -223t224 -93q130 0 223 93t93 223q0 131 -93 224t-223 93q-131 0 -224 -93zM261 1597v124h68q30 0 51 -18 q21 -19 21 -44q0 -26 -21 -44t-51 -18h-68zM418 1741q-37 34 -89 34h-122v-388h54v156h37l105 -151h66l-108 155q41 10 67 41q27 31 27 71q0 48 -37 82z" />
<glyph unicode="&#xaf;" horiz-adv-x="1099" d="M0 1792h849v178h-849v-178z" />
<glyph unicode="&#xb0;" horiz-adv-x="694" d="M156 1955q-28 27 -28 65t28 65q27 27 66 27q38 0 66 -27q27 -27 27 -65t-27 -65q-28 -27 -66 -27q-39 0 -66 27zM426 2105q-17 40 -47 70q-31 30 -71 47q-41 17 -86 17q-92 0 -157 -64q-31 -30 -48 -70q-17 -41 -17 -85q0 -45 17 -86q17 -39 48 -70q31 -30 71 -47 q41 -17 86 -17q92 0 157 64q30 31 47 70q18 41 18 86q0 44 -18 85z" />
<glyph unicode="&#xb1;" horiz-adv-x="1087" d="M315 1226v-315h-315v-178h315v-315h178v315h315v178h-315v315h-178zM0 178v-178h837v178h-837z" />
<glyph unicode="&#xb4;" horiz-adv-x="733" d="M374 2250l-374 -331l109 -126l374 331z" />
<glyph unicode="&#xb6;" horiz-adv-x="1078" d="M828 1652v-1294h-185v1103h-122v-1103h-186v729h-53q-116 0 -200 82q-82 84 -82 201q0 116 82 200q84 82 200 82h546z" />
<glyph unicode="&#xb7;" horiz-adv-x="401" d="M0 727h151v150h-151v-150z" />
<glyph unicode="&#xb8;" horiz-adv-x="712" d="M427 77l-68 -215l29 -22q16 -15 27 -29q47 -59 42 -136q-5 -75 -60 -139q-49 -56 -139 -74q-102 -20 -258 51l94 132q191 -51 195 34t-133 92q111 344 121 354z" />
<glyph unicode="&#xbb;" horiz-adv-x="1154" d="M245 1190l261 -404l-260 -403h-245l260 403l-261 404h245zM643 1190l261 -404l-260 -403h-235l260 403l-261 404h235z" />
<glyph unicode="&#xbc;" horiz-adv-x="1230" d="M825 789v-388h-165l96 226l-96 41l-159 -372h324v-131h105v131h50v105h-50v388h-105zM193 1487l-193 -49l26 -102l62 16v-461h105v596zM37 319l77 -49l701 1096l-77 49z" />
<glyph unicode="&#xbd;" horiz-adv-x="1221" d="M854 763q-50 29 -104 29q-116 0 -181 -106l88 -55q36 56 93 56q26 0 51 -14q37 -22 47 -65q11 -44 -13 -84l-239 -358h373v104h-178l131 197q49 79 28 166q-21 85 -96 130zM26 1337l62 16v-461h105v596l-193 -49zM36 320l77 -49l702 1096l-77 49z" />
<glyph unicode="&#xbe;" horiz-adv-x="1400" d="M995 796v-388h-166l97 225l-96 41l-159 -371h324v-132h105v132h50v105h-50v388h-105zM206 326l77 -50l702 1096l-77 50zM423 1360q0 74 -53 126q-53 53 -128 53q-63 0 -116 -35q-54 -34 -75 -88l97 -39q9 24 36 41q27 16 58 16t54 -22q22 -22 22 -52q0 -31 -22 -53 q-23 -21 -54 -21h-24v-1h-19v-104h34q46 0 79 -32q32 -32 32 -77t-32 -77q-33 -32 -79 -32q-56 0 -93 29q-28 22 -44 59l-96 -41q31 -72 92 -112q61 -39 141 -39q89 0 153 62q63 63 63 151q0 98 -78 163q52 52 52 125z" />
<glyph unicode="&#xbf;" horiz-adv-x="1245" d="M384 212q-72 39 -116 106q-13 19 -22 41q-13 28 -18 56q-15 74 16 147q30 68 77 104q30 23 105 54l21 9l23 10q25 12 46 23q52 30 87 70q92 104 92 303v102h-223v-102q0 -107 -30 -147q-21 -28 -102 -62l-18 -8l-19 -8q-21 -9 -39 -18q-44 -23 -80 -50q-92 -72 -144 -192 q-49 -113 -38 -232q12 -119 80 -223q75 -113 197 -179q121 -66 257 -66q160 0 295 87q136 87 201 231l-203 92q-39 -85 -118 -136q-80 -51 -175 -51q-80 0 -152 39zM699 1605h-223v-197h223v197z" />
<glyph unicode="&#xc0;" horiz-adv-x="1800" d="M678 1604l-678 -1560l205 -89l172 398h797l172 -398l204 89l-673 1560h-199zM777 1273l301 -698h-604zM453 2123l374 -331l109 126l-374 331z" />
<glyph unicode="&#xc1;" horiz-adv-x="1800" d="M678 1604l-678 -1560l205 -89l172 398h797l172 -398l204 89l-673 1560h-199zM777 1273l301 -698h-604zM988 2249l-374 -331l109 -126l374 331z" />
<glyph unicode="&#xc2;" horiz-adv-x="1800" d="M678 1604l-678 -1560l205 -89l172 398h797l172 -398l204 89l-673 1560h-199zM777 1273l301 -698h-604zM775 2186l-357 -249l102 -146l255 178l256 -178l102 146z" />
<glyph unicode="&#xc3;" horiz-adv-x="1800" d="M678 1604l-678 -1560l205 -89l172 398h797l172 -398l204 89l-673 1560h-199zM777 1273l301 -698h-604zM671 1882q24 -9 55 -23q150 -67 208 -67q50 -1 94 18q114 49 168 218l-169 55q-30 -92 -69 -109q-28 -12 -88 9q-24 9 -55 23q-85 46 -124 56q-98 26 -174 -6 q-110 -46 -163 -204l169 -57q27 82 62 96q27 12 86 -9z" />
<glyph unicode="&#xc4;" horiz-adv-x="1800" d="M678 1604l-678 -1560l205 -89l172 398h797l172 -398l204 89l-673 1560h-199zM777 1273l301 -698h-604zM405 1970h179v-178h-179v178zM907 1970h179v-178h-179v178z" />
<glyph unicode="&#xc5;" horiz-adv-x="1800" d="M777 1273l301 -698h-604zM736 1713q-15 16 -15 39q0 22 15 38q17 16 39 16q23 0 39 -16q17 -16 17 -38q0 -23 -17 -39q-16 -15 -39 -15q-22 0 -39 15zM903 1625q25 25 39 57q14 33 14 70q0 36 -14 70q-14 32 -39 57t-57 38q-34 14 -71 14q-75 0 -128 -52q-25 -25 -39 -57 q-14 -34 -14 -70q0 -37 14 -70q14 -32 39 -57q14 -14 30 -24l-677 -1557l205 -89l172 398h797l172 -398l204 89l-673 1559q14 10 26 22z" />
<glyph unicode="&#xc6;" horiz-adv-x="2284" d="M791 1604l-791 -1554l199 -101l205 404h524v-353l1106 -1v223h-884v569h702v223h-702v367h861v223h-1220zM927 1381l1 -805h-410z" />
<glyph unicode="&#xc7;" horiz-adv-x="1679" d="M641 -229q138 -7 134 -92t-196 -34l-93 -132q156 -71 258 -51q90 18 139 74q54 64 60 139q5 77 -43 136q-10 14 -27 29l-28 22l28 90q133 1 243 31q157 42 313 151l-127 183q-119 -83 -231 -115q-91 -27 -208 -27q-265 0 -452 184q-188 184 -188 444q0 259 188 443 q187 184 452 184q234 0 439 -142l127 183q-156 109 -313 151q-114 31 -253 31q-357 0 -610 -249q-119 -118 -185 -271q-68 -158 -68 -330q0 -173 68 -331q66 -153 185 -271q120 -117 274 -182q87 -36 178 -53q-26 -78 -64 -195z" />
<glyph unicode="&#xc8;" horiz-adv-x="1356" d="M0 1605v-1605h1106v223h-883v568h701v223h-701v367h861v223zM231 2122l374 -331l109 126l-374 331z" />
<glyph unicode="&#xc9;" horiz-adv-x="1356" d="M0 1605v-1605h1106v223h-883v568h701v223h-701v367h861v223zM766 2249l-374 -331l109 -126l374 331z" />
<glyph unicode="&#xca;" horiz-adv-x="1356" d="M0 1605v-1605h1106v223h-883v568h701v223h-701v367h861v223zM553 2187l-357 -249l102 -146l255 178l256 -178l102 146z" />
<glyph unicode="&#xcb;" horiz-adv-x="1356" d="M0 1605v-1605h1106v223h-883v568h701v223h-701v367h861v223zM213 1970h179v-178h-179v178zM715 1970h179v-178h-179v178z" />
<glyph unicode="&#xcc;" d="M0 0h223v1605h-223v-1605zM-210 2123l374 -331l109 126l-374 331z" />
<glyph unicode="&#xcd;" d="M0 0h223v1605h-223v-1605zM325 2248l-374 -330l109 -126l374 330z" />
<glyph unicode="&#xce;" d="M0 0h223v1605h-223v-1605zM112 2188l-358 -249l102 -147l256 178l255 -178l102 147z" />
<glyph unicode="&#xcf;" d="M0 0h223v1605h-223v-1605zM-229 1971h179v-178h-179v178zM273 1971h179v-178h-179v178z" />
<glyph unicode="&#xd0;" horiz-adv-x="1560" d="M0 0h514q363 0 620 235q122 111 189 255q69 149 69 312t-69 312q-67 144 -189 255q-257 235 -620 235h-291v1h-223v-678h-115v-213h115v-714zM223 927v454h291q271 0 463 -170q192 -169 192 -409q0 -239 -192 -409t-463 -170h-291v491h446v213h-446z" />
<glyph unicode="&#xd1;" horiz-adv-x="1721" d="M1248 1605v-1248l-1011 1247h-237v-1604h223v1268l1028 -1268h220v1605h-223zM632 1883q24 -9 55 -23q150 -67 208 -67q50 -1 94 18q114 49 168 218l-169 55q-30 -92 -69 -109q-28 -12 -88 9q-24 9 -55 23q-85 46 -124 56q-98 26 -174 -6q-110 -46 -163 -204l169 -57 q27 82 62 96q27 12 86 -9z" />
<glyph unicode="&#xd2;" horiz-adv-x="1894" d="M1316 1246q187 -184 187 -443q0 -260 -187 -444q-188 -184 -453 -184t-452 184q-188 184 -188 444q0 259 188 443q187 184 452 184t453 -184zM1473 201q120 118 185 271q68 158 68 331q0 172 -68 330q-65 153 -185 271q-119 118 -274 182q-161 67 -336 67 q-357 0 -610 -249q-119 -118 -185 -271q-68 -158 -68 -330q0 -173 68 -331q66 -153 185 -271q120 -117 274 -182q161 -67 336 -67q357 0 610 249zM541 2123l374 -331l109 126l-374 331z" />
<glyph unicode="&#xd3;" horiz-adv-x="1894" d="M1316 1246q187 -184 187 -443q0 -260 -187 -444q-188 -184 -453 -184t-452 184q-188 184 -188 444q0 259 188 443q187 184 452 184t453 -184zM1473 201q120 118 185 271q68 158 68 331q0 172 -68 330q-65 153 -185 271q-119 118 -274 182q-161 67 -336 67 q-357 0 -610 -249q-119 -118 -185 -271q-68 -158 -68 -330q0 -173 68 -331q66 -153 185 -271q120 -117 274 -182q161 -67 336 -67q357 0 610 249zM1076 2249l-374 -331l109 -126l374 331z" />
<glyph unicode="&#xd4;" horiz-adv-x="1894" d="M1316 1246q187 -184 187 -443q0 -260 -187 -444q-188 -184 -453 -184t-452 184q-188 184 -188 444q0 259 188 443q187 184 452 184t453 -184zM1473 201q120 118 185 271q68 158 68 331q0 172 -68 330q-65 153 -185 271q-119 118 -274 182q-161 67 -336 67 q-357 0 -610 -249q-119 -118 -185 -271q-68 -158 -68 -330q0 -173 68 -331q66 -153 185 -271q120 -117 274 -182q161 -67 336 -67q357 0 610 249zM862 2186l-357 -249l102 -146l255 178l256 -178l102 146z" />
<glyph unicode="&#xd5;" horiz-adv-x="1894" d="M1316 1246q187 -184 187 -443q0 -260 -187 -444q-188 -184 -453 -184t-452 184q-188 184 -188 444q0 259 188 443q187 184 452 184t453 -184zM1473 201q120 118 185 271q68 158 68 331q0 172 -68 330q-65 153 -185 271q-119 118 -274 182q-161 67 -336 67 q-357 0 -610 -249q-119 -118 -185 -271q-68 -158 -68 -330q0 -173 68 -331q66 -153 185 -271q120 -117 274 -182q161 -67 336 -67q357 0 610 249zM759 1882q24 -9 55 -23q150 -67 208 -67q50 -1 94 18q114 49 168 218l-169 55q-30 -92 -69 -109q-28 -12 -88 9q-24 9 -55 23 q-85 46 -124 56q-98 26 -174 -6q-110 -46 -163 -204l169 -57q27 82 62 96q27 12 86 -9z" />
<glyph unicode="&#xd6;" horiz-adv-x="1894" d="M1316 1246q187 -184 187 -443q0 -260 -187 -444q-188 -184 -453 -184t-452 184q-188 184 -188 444q0 259 188 443q187 184 452 184t453 -184zM1473 201q120 118 185 271q68 158 68 331q0 172 -68 330q-65 153 -185 271q-119 118 -274 182q-161 67 -336 67 q-357 0 -610 -249q-119 -118 -185 -271q-68 -158 -68 -330q0 -173 68 -331q66 -153 185 -271q120 -117 274 -182q161 -67 336 -67q357 0 610 249zM523 1970h179v-178h-179v178zM1025 1970h179v-178h-179v178z" />
<glyph unicode="&#xd7;" horiz-adv-x="979" d="M1 1029l206 -206l-207 -207l158 -158l207 207l207 -207l157 157l-207 207l207 207l-158 158l-207 -207l-206 206z" />
<glyph unicode="&#xd8;" horiz-adv-x="1894" d="M410 1246q188 184 453 184q145 0 275 -61l-749 -988q-166 179 -166 421q0 260 187 444zM1321 1241q182 -184 182 -439q0 -259 -187 -443q-188 -184 -453 -184q-157 0 -296 71zM134 44l178 -135l119 157q200 -114 432 -114q357 0 610 249q120 118 185 271q68 158 68 330 q0 179 -73 342q-70 157 -197 276l107 141l-177 135l-111 -146q-192 103 -412 103q-357 0 -610 -249q-120 -118 -185 -271q-68 -158 -68 -331t68 -331q65 -152 185 -270z" />
<glyph unicode="&#xd9;" horiz-adv-x="1630" d="M1157 632q0 -190 -137 -324t-330 -134t-330 134t-137 324v972h-223v-972q0 -282 202 -481q203 -200 488 -200q286 0 488 200q202 199 202 481v972h-223v-972zM368 2123l374 -331l109 126l-374 331z" />
<glyph unicode="&#xda;" horiz-adv-x="1630" d="M1157 632q0 -190 -137 -324t-330 -134t-330 134t-137 324v972h-223v-972q0 -282 202 -481q203 -200 488 -200q286 0 488 200q202 199 202 481v972h-223v-972zM903 2249l-374 -331l109 -126l374 331z" />
<glyph unicode="&#xdb;" horiz-adv-x="1630" d="M1157 632q0 -190 -137 -324t-330 -134t-330 134t-137 324v972h-223v-972q0 -282 202 -481q203 -200 488 -200q286 0 488 200q202 199 202 481v972h-223v-972zM690 2187l-357 -249l102 -146l255 178l256 -178l102 146z" />
<glyph unicode="&#xdc;" horiz-adv-x="1630" d="M1157 632q0 -190 -137 -324t-330 -134t-330 134t-137 324v972h-223v-972q0 -282 202 -481q203 -200 488 -200q286 0 488 200q202 199 202 481v972h-223v-972zM349 1970h179v-178h-179v178zM851 1970h179v-178h-179v178z" />
<glyph unicode="&#xdd;" horiz-adv-x="1648" d="M1217 1652l-518 -723l-518 723l-181 -130l589 -823v-699h223v704l586 818zM912 2249l-374 -331l109 -126l374 331z" />
<glyph unicode="&#xde;" horiz-adv-x="1247" d="M223 403v798h178q189 0 322 -117q134 -117 134 -282t-134 -282q-133 -117 -322 -117h-178zM223 1424v181h-223v-1605h223v181h178q281 0 480 182q198 182 198 439t-198 440q-199 182 -480 182h-178z" />
<glyph unicode="&#xdf;" horiz-adv-x="1354" d="M1014 1148q8 258 -203 413q-111 81 -253 92q-141 11 -266 -52q-139 -71 -216 -213q-76 -141 -76 -329v-1058h223v1058q0 256 170 343q68 34 147 29q79 -6 139 -50q117 -85 113 -227q-3 -83 -51 -139q-48 -57 -126 -71h-53v-223h63q76 0 150 -39q75 -39 123 -104 q13 -18 23 -37q13 -25 20 -51q20 -67 -1 -132q-41 -129 -176 -171q-118 -37 -202 28l-136 -177q112 -86 261 -86q73 0 144 22q115 37 200 120q86 84 121 197q34 105 14 215q-20 109 -89 204q-68 93 -170 154q102 117 107 284z" />
<glyph unicode="&#xe0;" horiz-adv-x="1840" d="M698 1604l-698 -1604h250l147 353h797l152 -353h244l-693 1604h-199zM797 1273l301 -698h-604zM473 2124l374 -331l109 126l-374 331z" />
<glyph unicode="&#xe1;" horiz-adv-x="1840" d="M698 1604l-698 -1604h250l147 353h797l152 -353h244l-693 1604h-199zM797 1273l301 -698h-604zM1008 2250l-374 -331l109 -126l374 331z" />
<glyph unicode="&#xe2;" horiz-adv-x="1840" d="M698 1604l-698 -1604h250l147 353h797l152 -353h244l-693 1604h-199zM797 1273l301 -698h-604zM795 2188l-357 -249l102 -146l255 178l256 -178l102 146z" />
<glyph unicode="&#xe3;" horiz-adv-x="1840" d="M698 1604l-698 -1604h250l147 353h797l152 -353h244l-693 1604h-199zM797 1273l301 -698h-604zM691 1883q24 -9 55 -23q150 -67 208 -67q50 -1 94 18q114 49 168 218l-169 55q-30 -92 -69 -109q-28 -12 -88 9q-24 9 -55 23q-85 46 -124 56q-98 26 -174 -6 q-110 -46 -163 -204l169 -57q27 82 62 96q27 12 86 -9z" />
<glyph unicode="&#xe4;" horiz-adv-x="1840" d="M698 1604l-698 -1604h250l147 353h797l152 -353h244l-693 1604h-199zM797 1273l301 -698h-604zM454 1971h179v-178h-179v178zM956 1971h179v-178h-179v178z" />
<glyph unicode="&#xe5;" horiz-adv-x="1840" d="M797 1273l301 -698h-604zM756 1725q-15 16 -15 38q0 23 15 38q17 16 39 16q23 0 39 -16q17 -15 17 -38q0 -22 -17 -38q-16 -16 -39 -16q-22 0 -39 16zM923 1636q25 25 39 57q14 33 14 70q0 36 -14 70q-14 32 -39 57t-57 38q-34 14 -71 14q-75 0 -128 -52q-25 -25 -39 -57 q-14 -34 -14 -70q0 -37 14 -70q14 -32 39 -57q19 -19 43 -32h-12l-698 -1604h250l147 353h797l152 -353h244l-693 1604h-16q22 12 42 32z" />
<glyph unicode="&#xe6;" horiz-adv-x="2319" d="M826 1604l-826 -1604h258l181 353h524v-353l1106 -1v223h-884v569h702v223h-702v367h861v223h-1220zM962 1381l1 -805h-410z" />
<glyph unicode="&#xe7;" horiz-adv-x="1553" d="M578 -229q138 -7 134 -92t-196 -34l-93 -132q156 -71 258 -51q90 18 139 74q54 64 60 139q5 77 -43 136q-10 14 -27 29l-28 22l29 92q26 -2 52 -2q139 0 253 31q94 25 187 74v259l-1 1q-119 -83 -231 -115q-91 -27 -208 -27q-265 0 -452 184q-188 184 -188 444 q0 259 188 443q187 184 452 184q234 0 439 -142l1 1v259q-93 49 -187 74q-114 31 -253 31q-357 0 -610 -249q-119 -118 -185 -271q-68 -158 -68 -330q0 -173 68 -331q66 -153 185 -271q120 -117 274 -182q59 -24 119 -40q-27 -81 -68 -208z" />
<glyph unicode="&#xe8;" horiz-adv-x="1356" d="M0 1605v-1605h1106v223h-883v568h701v223h-701v367h861v223zM231 2122l374 -331l109 127l-374 330z" />
<glyph unicode="&#xe9;" horiz-adv-x="1356" d="M0 1605v-1605h1106v223h-883v568h701v223h-701v367h861v223zM766 2249l-374 -331l109 -126l374 331z" />
<glyph unicode="&#xea;" horiz-adv-x="1356" d="M0 1605v-1605h1106v223h-883v568h701v223h-701v367h861v223zM553 2187l-357 -249l102 -146l255 178l256 -178l101 146z" />
<glyph unicode="&#xeb;" horiz-adv-x="1356" d="M0 1605v-1605h1106v223h-883v568h701v223h-701v367h861v223zM213 1970h179v-178h-179v178zM715 1970h179v-178h-179v178z" />
<glyph unicode="&#xec;" d="M0 0h223v1605h-223v-1605zM-210 2123l374 -331l109 126l-374 331z" />
<glyph unicode="&#xed;" d="M0 0h223v1605h-223v-1605zM325 2248l-374 -330l109 -126l374 330z" />
<glyph unicode="&#xee;" d="M0 0h223v1605h-223v-1605zM112 2188l-358 -249l102 -147l256 178l255 -178l102 147z" />
<glyph unicode="&#xef;" d="M0 0h223v1605h-223v-1605zM-229 1971h179v-178h-179v178zM273 1971h179v-178h-179v178z" />
<glyph unicode="&#xf0;" horiz-adv-x="1560" d="M0 0h514q363 0 620 235q122 111 189 255q69 149 69 312t-69 312q-67 144 -189 255q-257 235 -620 235h-291v1h-223v-718h-115v-213h115v-674zM223 887v494h291q271 0 463 -170q192 -169 192 -409q0 -239 -192 -409t-463 -170h-291v451h396v213h-396z" />
<glyph unicode="&#xf1;" horiz-adv-x="1721" d="M1248 1605v-1248l-1011 1247h-237v-1604h223v1268l1028 -1268h220v1605h-223zM632 1883q23 -9 55 -23q150 -67 207 -68q50 0 95 19q113 49 168 218l-170 55q-29 -92 -68 -109q-28 -12 -88 9q-24 9 -56 23q-84 46 -123 56q-98 26 -175 -6q-109 -46 -163 -204l169 -57 q28 82 63 96q27 11 86 -9z" />
<glyph unicode="&#xf2;" horiz-adv-x="1894" d="M1316 1246q187 -184 187 -443q0 -260 -187 -444q-188 -184 -453 -184t-452 184q-188 184 -188 444q0 259 188 443q187 184 452 184t453 -184zM1473 201q120 118 185 271q68 158 68 331q0 172 -68 330q-65 153 -185 271q-119 118 -274 182q-161 67 -336 67 q-357 0 -610 -249q-119 -118 -185 -271q-68 -158 -68 -330q0 -173 68 -331q66 -153 185 -271q120 -117 274 -182q161 -67 336 -67q357 0 610 249zM541 2123l374 -331l109 126l-374 331z" />
<glyph unicode="&#xf3;" horiz-adv-x="1894" d="M1316 1246q187 -184 187 -443q0 -260 -187 -444q-188 -184 -453 -184t-452 184q-188 184 -188 444q0 259 188 443q187 184 452 184t453 -184zM1473 201q120 118 185 271q68 158 68 331q0 172 -68 330q-65 153 -185 271q-119 118 -274 182q-161 67 -336 67 q-357 0 -610 -249q-119 -118 -185 -271q-68 -158 -68 -330q0 -173 68 -331q66 -153 185 -271q120 -117 274 -182q161 -67 336 -67q357 0 610 249zM1076 2248l-374 -330l109 -126l374 330z" />
<glyph unicode="&#xf4;" horiz-adv-x="1894" d="M1316 1246q187 -184 187 -443q0 -260 -187 -444q-188 -184 -453 -184t-452 184q-188 184 -188 444q0 259 188 443q187 184 452 184t453 -184zM1473 201q120 118 185 271q68 158 68 331q0 172 -68 330q-65 153 -185 271q-119 118 -274 182q-161 67 -336 67 q-357 0 -610 -249q-119 -118 -185 -271q-68 -158 -68 -330q0 -173 68 -331q66 -153 185 -271q120 -117 274 -182q161 -67 336 -67q357 0 610 249zM863 2187l-358 -249l102 -147l256 179l255 -179l102 147z" />
<glyph unicode="&#xf5;" horiz-adv-x="1894" d="M1316 1246q187 -184 187 -443q0 -260 -187 -444q-188 -184 -453 -184t-452 184q-188 184 -188 444q0 259 188 443q187 184 452 184t453 -184zM1473 201q120 118 185 271q68 158 68 331q0 172 -68 330q-65 153 -185 271q-119 118 -274 182q-161 67 -336 67 q-357 0 -610 -249q-119 -118 -185 -271q-68 -158 -68 -330q0 -173 68 -331q66 -153 185 -271q120 -117 274 -182q161 -67 336 -67q357 0 610 249zM759 1881q23 -8 55 -22q150 -67 207 -68q51 0 95 19q113 49 168 218l-169 55q-30 -92 -69 -109q-28 -12 -88 9q-24 9 -56 23 q-84 46 -123 56q-98 26 -174 -6q-110 -46 -163 -204l168 -57q28 82 63 96q27 11 86 -10z" />
<glyph unicode="&#xf6;" horiz-adv-x="1894" d="M1316 1246q187 -184 187 -443q0 -260 -187 -444q-188 -184 -453 -184t-452 184q-188 184 -188 444q0 259 188 443q187 184 452 184t453 -184zM1473 201q120 118 185 271q68 158 68 331q0 172 -68 330q-65 153 -185 271q-119 118 -274 182q-161 67 -336 67 q-357 0 -610 -249q-119 -118 -185 -271q-68 -158 -68 -330q0 -173 68 -331q66 -153 185 -271q120 -117 274 -182q161 -67 336 -67q357 0 610 249zM523 1970h179v-179h-179v179zM1025 1970h179v-179h-179v179z" />
<glyph unicode="&#xf7;" horiz-adv-x="938" d="M0 917v-178h688v178h-688zM431 639v-174h-174v174h174zM431 1190v-174h-174v174h174z" />
<glyph unicode="&#xf8;" horiz-adv-x="1894" d="M410 1246q188 184 453 184q145 0 275 -61l-749 -988q-166 179 -166 421q0 260 187 444zM1321 1241q182 -184 182 -439q0 -259 -187 -443q-188 -184 -453 -184q-157 0 -296 71zM134 44l178 -135l119 157q200 -114 432 -114q357 0 610 249q120 118 185 271q68 158 68 330 q0 179 -73 342q-70 157 -197 276l107 141l-177 135l-111 -146q-192 103 -412 103q-357 0 -610 -249q-120 -118 -185 -271q-68 -158 -68 -331t68 -331q65 -152 185 -270z" />
<glyph unicode="&#xf9;" horiz-adv-x="1630" d="M1157 632q0 -190 -137 -324t-330 -134t-330 134t-137 324v972h-223v-972q0 -282 202 -481q203 -200 488 -200q286 0 488 200q202 199 202 481v972h-223v-972zM368 2123l374 -331l109 126l-374 331z" />
<glyph unicode="&#xfa;" horiz-adv-x="1630" d="M1157 632q0 -190 -137 -324t-330 -134t-330 134t-137 324v972h-223v-972q0 -282 202 -481q203 -200 488 -200q286 0 488 200q202 199 202 481v972h-223v-972zM903 2248l-374 -330l109 -126l374 330z" />
<glyph unicode="&#xfb;" horiz-adv-x="1630" d="M1157 632q0 -190 -137 -324t-330 -134t-330 134t-137 324v972h-223v-972q0 -282 202 -481q203 -200 488 -200q286 0 488 200q202 199 202 481v972h-223v-972zM690 2188l-357 -249l102 -147l255 178l256 -178l102 147z" />
<glyph unicode="&#xfc;" horiz-adv-x="1630" d="M1157 632q0 -190 -137 -324t-330 -134t-330 134t-137 324v972h-223v-972q0 -282 202 -481q203 -200 488 -200q286 0 488 200q202 199 202 481v972h-223v-972zM349 1970h180v-179h-180v179zM851 1970h180v-179h-180v179z" />
<glyph unicode="&#xfd;" horiz-adv-x="1648" d="M1217 1652l-518 -723l-518 723l-181 -130l589 -823v-699h223v704l586 818zM912 2249l-374 -331l109 -126l374 331z" />
<glyph unicode="&#xfe;" horiz-adv-x="1247" d="M223 403v798h178q189 0 322 -117q134 -117 134 -282t-134 -282q-133 -117 -322 -117h-178zM223 1424v181h-223v-1605h223v181h178q281 0 480 182q198 182 198 439t-198 440q-199 182 -480 182h-178z" />
<glyph unicode="&#xff;" horiz-adv-x="1767" d="M1233 1604l-474 -675l-483 675h-276l649 -905v-699h223v704l645 900h-284zM418 1971h179v-178h-179v178zM920 1971h179v-178h-179v178z" />
<glyph unicode="&#x100;" horiz-adv-x="1800" d="M678 1604l-678 -1560l205 -89l172 398h797l172 -398l204 89l-673 1560h-199zM777 1273l301 -698h-604zM418 1794h713v178h-713v-178z" />
<glyph unicode="&#x101;" horiz-adv-x="1840" d="M698 1604l-698 -1604h250l147 353h797l152 -353h244l-693 1604h-199zM797 1273l301 -698h-604zM438 1793h713v178h-713v-178z" />
<glyph unicode="&#x102;" horiz-adv-x="1800" d="M678 1604l-678 -1560l205 -89l172 398h797l172 -398l204 89l-673 1560h-199zM777 1273l301 -698h-604zM1023 1891q104 98 104 235h-179q0 -63 -51 -109q-51 -45 -123 -45t-123 45q-51 46 -51 109h-178q0 -137 103 -235q104 -97 249 -97q146 0 249 97z" />
<glyph unicode="&#x103;" horiz-adv-x="1840" d="M698 1604l-698 -1604h250l147 353h797l152 -353h244l-693 1604h-199zM797 1273l301 -698h-604zM1044 1890q104 98 104 235h-179q0 -63 -51 -109q-51 -45 -123 -45t-123 45q-51 46 -51 109h-178q0 -137 103 -235q104 -97 249 -97q146 0 249 97z" />
<glyph unicode="&#x104;" horiz-adv-x="1800" d="M777 1273l301 -698h-604zM1279 3q-97 -114 -66 -237q28 -106 127 -119q11 -2 21 -2q51 0 98 28q48 29 75 77l-117 66q-10 -18 -28 -29q-18 -10 -31 -8l-3 1q-2 0 -4 2q-5 5 -8 17q-16 61 46 126q39 42 132 106l29 13l-673 1560h-199l-678 -1560l205 -89l172 398h797 l137 -316q-18 -17 -32 -34z" />
<glyph unicode="&#x105;" horiz-adv-x="1840" d="M797 1273l301 -698h-604zM1329 -42q-97 -114 -66 -237q28 -106 127 -119q11 -2 21 -2q51 0 98 28q48 29 75 77l-117 66q-10 -18 -28 -29q-18 -10 -31 -8l-3 1q-2 0 -4 2q-5 5 -8 17q-16 61 46 126q42 46 149 118l2 1l-1 1h1l-693 1604h-199l-698 -1604h250l147 353h797 l152 -353h24q-23 -21 -41 -42z" />
<glyph unicode="&#x106;" horiz-adv-x="1679" d="M1116 -17q157 42 313 151l-127 183q-119 -83 -231 -115q-91 -27 -208 -27q-265 0 -452 184q-188 184 -188 444q0 259 188 443q187 184 452 184q234 0 439 -142l127 183q-156 109 -313 151q-114 31 -253 31q-357 0 -610 -249q-119 -118 -185 -271q-68 -158 -68 -330 q0 -173 68 -331q66 -153 185 -271q120 -117 274 -182q161 -67 336 -67q139 0 253 31zM965 2250l-374 -331l108 -126l374 331z" />
<glyph unicode="&#x107;" horiz-adv-x="1553" d="M1303 316l-1 1q-119 -83 -231 -115q-91 -27 -208 -27q-265 0 -452 184q-188 184 -188 444q0 259 188 443q187 184 452 184q234 0 439 -142l1 1v259q-93 49 -187 74q-114 31 -253 31q-357 0 -610 -249q-119 -118 -185 -271q-68 -158 -68 -330q0 -173 68 -331 q66 -153 185 -271q120 -117 274 -182q161 -67 336 -67q139 0 253 31q94 25 187 74v259zM965 2250l-374 -331l108 -126l374 331z" />
<glyph unicode="&#x108;" horiz-adv-x="1679" d="M1116 -17q157 42 313 151l-127 183q-119 -83 -231 -115q-91 -27 -208 -27q-265 0 -452 184q-188 184 -188 444q0 259 188 443q187 184 452 184q234 0 439 -142l127 183q-156 109 -313 151q-114 31 -253 31q-357 0 -610 -249q-119 -118 -185 -271q-68 -158 -68 -330 q0 -173 68 -331q66 -153 185 -271q120 -117 274 -182q161 -67 336 -67q139 0 253 31zM857 2186l-358 -249l102 -146l256 178l255 -178l102 146z" />
<glyph unicode="&#x109;" horiz-adv-x="1553" d="M1303 316l-1 1q-119 -83 -231 -115q-91 -27 -208 -27q-265 0 -452 184q-188 184 -188 444q0 259 188 443q187 184 452 184q234 0 439 -142l1 1v259q-93 49 -187 74q-114 31 -253 31q-357 0 -610 -249q-119 -118 -185 -271q-68 -158 -68 -330q0 -173 68 -331 q66 -153 185 -271q120 -117 274 -182q161 -67 336 -67q139 0 253 31q94 25 187 74v259zM777 2186l-358 -249l102 -146l256 178l255 -178l102 146z" />
<glyph unicode="&#x10a;" horiz-adv-x="1679" d="M1116 -17q157 42 313 151l-127 183q-119 -83 -231 -115q-91 -27 -208 -27q-265 0 -452 184q-188 184 -188 444q0 259 188 443q187 184 452 184q234 0 439 -142l127 183q-156 109 -313 151q-114 31 -253 31q-357 0 -610 -249q-119 -118 -185 -271q-68 -158 -68 -330 q0 -173 68 -331q66 -153 185 -271q120 -117 274 -182q161 -67 336 -67q139 0 253 31zM767 1791h179v178h-179v-178z" />
<glyph unicode="&#x10b;" horiz-adv-x="1553" d="M1303 316l-1 1q-119 -83 -231 -115q-91 -27 -208 -27q-265 0 -452 184q-188 184 -188 444q0 259 188 443q187 184 452 184q234 0 439 -142l1 1v259q-93 49 -187 74q-114 31 -253 31q-357 0 -610 -249q-119 -118 -185 -271q-68 -158 -68 -330q0 -173 68 -331 q66 -153 185 -271q120 -117 274 -182q161 -67 336 -67q139 0 253 31q94 25 187 74v259zM770 1793h179v178h-179v-178z" />
<glyph unicode="&#x10c;" horiz-adv-x="1679" d="M1116 -17q157 42 313 151l-127 183q-119 -83 -231 -115q-91 -27 -208 -27q-265 0 -452 184q-188 184 -188 444q0 259 188 443q187 184 452 184q234 0 439 -142l127 183q-156 109 -313 151q-114 31 -253 31q-357 0 -610 -249q-119 -118 -185 -271q-68 -158 -68 -330 q0 -173 68 -331q66 -153 185 -271q120 -117 274 -182q161 -67 336 -67q139 0 253 31zM1215 2042l-102 146l-256 -178l-255 178l-102 -146l357 -249z" />
<glyph unicode="&#x10d;" horiz-adv-x="1553" d="M1303 316l-1 1q-119 -83 -231 -115q-91 -27 -208 -27q-265 0 -452 184q-188 184 -188 444q0 259 188 443q187 184 452 184q234 0 439 -142l1 1v259q-93 49 -187 74q-114 31 -253 31q-357 0 -610 -249q-119 -118 -185 -271q-68 -158 -68 -330q0 -173 68 -331 q66 -153 185 -271q120 -117 274 -182q161 -67 336 -67q139 0 253 31q94 25 187 74v259zM1229 2042l-102 146l-256 -178l-255 178l-102 -146l357 -249z" />
<glyph unicode="&#x10e;" horiz-adv-x="1560" d="M223 1381h291q271 0 463 -170q192 -169 192 -409q0 -239 -192 -409t-463 -170h-291v1158zM514 0q363 0 620 235q122 111 189 255q69 149 69 312t-69 312q-67 144 -189 255q-257 235 -620 235h-291v1h-223v-1605h514zM959 2042l-102 146l-256 -178l-255 178l-102 -146 l357 -249z" />
<glyph unicode="&#x10f;" horiz-adv-x="1560" d="M223 1381h291q271 0 463 -170q192 -169 192 -409q0 -239 -192 -409t-463 -170h-291v1158zM514 0q363 0 620 235q122 111 189 255q69 149 69 312t-69 312q-67 144 -189 255q-257 235 -620 235h-291v1h-223v-1605h514zM958 2043l-102 146l-255 -178l-255 178l-102 -146 l357 -250z" />
<glyph unicode="&#x110;" horiz-adv-x="1560" d="M0 0h514q363 0 620 235q122 111 189 255q69 149 69 312t-69 312q-67 144 -189 255q-257 235 -620 235h-291v1h-223v-678h-115v-213h115v-714zM223 927v454h291q271 0 463 -170q192 -169 192 -409q0 -239 -192 -409t-463 -170h-291v491h446v213h-446z" />
<glyph unicode="&#x111;" horiz-adv-x="1560" d="M0 0h514q363 0 620 235q122 111 189 255q69 149 69 312t-69 312q-67 144 -189 255q-257 235 -620 235h-291v1h-223v-678h-115v-213h115v-714zM223 927v454h291q271 0 463 -170q192 -169 192 -409q0 -239 -192 -409t-463 -170h-291v491h446v213h-446z" />
<glyph unicode="&#x112;" horiz-adv-x="1356" d="M0 1605v-1605h1106v223h-883v568h701v223h-701v367h861v223zM196 1793h714v178h-714v-178z" />
<glyph unicode="&#x113;" horiz-adv-x="1356" d="M0 1605v-1605h1106v223h-883v568h701v223h-701v367h861v223zM196 1793h713v178h-713v-178z" />
<glyph unicode="&#x114;" horiz-adv-x="1356" d="M0 1605v-1605h1106v223h-883v568h701v223h-701v367h861v223zM802 1890q103 98 103 235h-178q0 -63 -51 -109q-51 -45 -123 -45t-123 45q-51 46 -51 109h-178q0 -137 103 -235q103 -97 249 -97t249 97z" />
<glyph unicode="&#x115;" horiz-adv-x="1356" d="M0 1605v-1605h1106v223h-883v568h701v223h-701v367h861v223zM802 1890q104 98 104 235h-179q0 -63 -51 -109q-51 -45 -123 -45t-123 45q-51 46 -51 109h-178q0 -137 103 -235q104 -97 249 -97q146 0 249 97z" />
<glyph unicode="&#x116;" horiz-adv-x="1356" d="M0 1605v-1605h1106v223h-883v568h701v223h-701v367h861v223zM463 1793h180v178h-180v-178z" />
<glyph unicode="&#x117;" horiz-adv-x="1356" d="M0 1605v-1605h1106v223h-883v568h701v223h-701v367h861v223zM463 1793h179v178h-179v-178z" />
<glyph unicode="&#x118;" horiz-adv-x="1356" d="M835 -27q-97 -114 -66 -237q28 -106 127 -119q11 -2 21 -2q51 0 98 28q48 29 75 77l-117 66q-10 -18 -28 -29q-18 -10 -31 -8l-3 1q-2 0 -4 2q-5 5 -8 17q-16 61 46 126q81 76 161 105v223h-883v568h701v223h-701v367h861v223l-1084 1v-1605h860q-13 -14 -25 -27z" />
<glyph unicode="&#x119;" horiz-adv-x="1356" d="M835 -27q-97 -114 -66 -237q28 -106 127 -119q11 -2 21 -2q51 0 98 28q48 29 75 77l-117 66q-10 -18 -28 -29q-18 -10 -31 -8l-3 1q-2 0 -4 2q-5 5 -8 17q-16 61 46 126q81 76 161 105v223h-883v568h701v223h-701v367h861v223l-1084 1v-1605h860q-13 -14 -25 -27z" />
<glyph unicode="&#x11a;" horiz-adv-x="1356" d="M0 1605v-1605h1106v223h-883v568h701v223h-701v367h861v223zM910 2042l-102 146l-255 -178l-255 178l-102 -146l357 -249z" />
<glyph unicode="&#x11b;" horiz-adv-x="1356" d="M0 1605v-1605h1106v223h-883v568h701v223h-701v367h861v223zM911 2042l-102 146l-256 -178l-255 178l-102 -146l357 -249z" />
<glyph unicode="&#x11c;" horiz-adv-x="1727" d="M1116 -17q157 42 313 151l48 33v753h-598v-223h375v-411q-179 -111 -391 -111q-265 0 -452 184q-188 184 -188 444q0 259 188 443q187 184 452 184q234 0 439 -142l127 183q-156 109 -313 151q-114 31 -253 31q-357 0 -610 -249q-119 -118 -185 -271q-68 -158 -68 -330 q0 -173 68 -331q66 -153 185 -271q120 -117 274 -182q161 -67 336 -67q139 0 253 31zM851 2186l-357 -249l102 -146l255 178l256 -178l102 146z" />
<glyph unicode="&#x11d;" horiz-adv-x="1727" d="M1302 1549q-93 48 -186 73q-114 31 -253 31q-357 0 -610 -249q-119 -118 -185 -271q-68 -158 -68 -330q0 -173 68 -331q66 -153 185 -271q120 -117 274 -182q161 -67 336 -67q139 0 253 31q157 42 313 151l48 33v753h-598v-223h375v-411q-179 -111 -391 -111 q-265 0 -452 184q-188 184 -188 444q0 259 188 443q187 184 452 184q234 0 439 -142v261zM858 2188l-357 -249l102 -146l255 178l256 -178l102 146z" />
<glyph unicode="&#x11e;" horiz-adv-x="1727" d="M1116 -17q157 42 313 151l48 33v753h-598v-223h375v-411q-179 -111 -391 -111q-265 0 -452 184q-188 184 -188 444q0 259 188 443q187 184 452 184q234 0 439 -142l127 183q-156 109 -313 151q-114 31 -253 31q-357 0 -610 -249q-119 -118 -185 -271q-68 -158 -68 -330 q0 -173 68 -331q66 -153 185 -271q120 -117 274 -182q161 -67 336 -67q139 0 253 31zM1107 1889q104 98 104 235h-179q0 -63 -51 -109q-51 -45 -123 -45t-123 45q-51 46 -51 109h-178q0 -137 103 -235q104 -97 249 -97q146 0 249 97z" />
<glyph unicode="&#x11f;" horiz-adv-x="1727" d="M1302 1549q-93 48 -186 73q-114 31 -253 31q-357 0 -610 -249q-119 -118 -185 -271q-68 -158 -68 -330q0 -173 68 -331q66 -153 185 -271q120 -117 274 -182q161 -67 336 -67q139 0 253 31q157 42 313 151l48 33v753h-598v-223h375v-411q-179 -111 -391 -111 q-265 0 -452 184q-188 184 -188 444q0 259 188 443q187 184 452 184q234 0 439 -142v261zM1103 1890q104 98 104 235h-179q0 -63 -51 -109q-51 -45 -123 -45t-123 45q-51 46 -51 109h-178q0 -137 103 -235q104 -97 249 -97q146 0 249 97z" />
<glyph unicode="&#x120;" horiz-adv-x="1727" d="M1116 -17q157 42 313 151l48 33v753h-598v-223h375v-411q-179 -111 -391 -111q-265 0 -452 184q-188 184 -188 444q0 259 188 443q187 184 452 184q234 0 439 -142l127 183q-156 109 -313 151q-114 31 -253 31q-357 0 -610 -249q-119 -118 -185 -271q-68 -158 -68 -330 q0 -173 68 -331q66 -153 185 -271q120 -117 274 -182q161 -67 336 -67q139 0 253 31zM783 1792h179v178h-179v-178z" />
<glyph unicode="&#x121;" horiz-adv-x="1727" d="M1302 1549q-93 48 -186 73q-114 31 -253 31q-357 0 -610 -249q-119 -118 -185 -271q-68 -158 -68 -330q0 -173 68 -331q66 -153 185 -271q120 -117 274 -182q161 -67 336 -67q139 0 253 31q157 42 313 151l48 33v753h-598v-223h375v-411q-179 -111 -391 -111 q-265 0 -452 184q-188 184 -188 444q0 259 188 443q187 184 452 184q234 0 439 -142v261zM771 1793h179v178h-179v-178z" />
<glyph unicode="&#x122;" horiz-adv-x="1727" d="M1116 -17q157 42 313 151l48 33v753h-598v-223h375v-411q-179 -111 -391 -111q-265 0 -452 184q-188 184 -188 444q0 259 188 443q187 184 452 184q234 0 439 -142l127 183q-156 109 -313 151q-114 31 -253 31q-357 0 -610 -249q-119 -118 -185 -271q-68 -158 -68 -330 q0 -173 68 -331q66 -153 185 -271q120 -117 274 -182q161 -67 336 -67q139 0 253 31zM750 -214v-197h98l-82 -203h71l136 203v197h-223z" />
<glyph unicode="&#x123;" horiz-adv-x="1727" d="M1116 -17q157 42 313 151l48 33v753h-598v-223h375v-411q-179 -111 -391 -111q-265 0 -452 184q-188 184 -188 444q0 259 188 443q187 184 452 184q234 0 439 -142l127 183q-156 109 -313 151q-114 31 -253 31q-357 0 -610 -249q-119 -118 -185 -271q-68 -158 -68 -330 q0 -173 68 -331q66 -153 185 -271q120 -117 274 -182q161 -67 336 -67q139 0 253 31zM750 -214v-197h98l-82 -203h71l136 203v197h-223z" />
<glyph unicode="&#x124;" horiz-adv-x="1632" d="M1159 1605v-613h-936v613h-223v-1605h223v769h936v-769h223v1605h-223zM691 2186l-357 -249l102 -146l255 178l255 -178l102 146z" />
<glyph unicode="&#x125;" horiz-adv-x="1632" d="M1159 1605v-613h-936v613h-223v-1605h223v769h936v-769h223v1605h-223zM691 2186l-357 -249l102 -146l255 178l256 -178l102 146z" />
<glyph unicode="&#x126;" horiz-adv-x="1632" d="M223 1405v200h-223v-200h-50v-178h50v-1227h223v769h936v-769h223v1227h59v178h-59v200h-223v-200h-936zM1159 1227v-235h-936v235h936z" />
<glyph unicode="&#x127;" horiz-adv-x="1632" d="M223 1405v200h-223v-200h-50v-178h50v-1227h223v769h936v-769h223v1227h59v178h-59v200h-223v-200h-936zM1159 1227v-235h-936v235h936z" />
<glyph unicode="&#x128;" d="M0 0h223v1605h-223v-1605zM-15 1883q24 -9 55 -23q150 -67 207 -67q51 -1 95 18q113 49 168 218l-169 55q-30 -92 -69 -109q-28 -12 -88 9q-24 9 -56 23q-84 46 -123 56q-98 26 -174 -6q-110 -46 -163 -204l168 -57q28 82 63 96q27 12 86 -9z" />
<glyph unicode="&#x129;" d="M0 0h223v1605h-223v-1605zM-15 1883q24 -9 55 -23q150 -67 207 -67q51 -1 95 18q113 49 168 218l-169 55q-30 -92 -69 -109q-28 -12 -88 9q-24 9 -56 23q-84 46 -123 56q-98 26 -174 -6q-110 -46 -163 -204l168 -57q28 82 63 96q27 12 86 -9z" />
<glyph unicode="&#x12a;" d="M0 0h223v1605h-223v-1605zM-268 1793h714v178h-714v-178z" />
<glyph unicode="&#x12b;" d="M0 0h223v1605h-223v-1605zM-268 1793h714v178h-714v-178z" />
<glyph unicode="&#x12c;" d="M0 0h223v1605h-223v-1605zM338 1890q103 98 103 235h-178q0 -63 -51 -109q-51 -45 -123 -45t-123 45q-51 46 -51 109h-178q0 -137 103 -235q103 -97 249 -97t249 97z" />
<glyph unicode="&#x12d;" d="M0 0h223v1605h-223v-1605zM338 1890q103 98 103 235h-178q0 -63 -51 -109q-51 -45 -123 -45t-123 45q-51 46 -51 109h-178q0 -137 103 -235q103 -97 249 -97t249 97z" />
<glyph unicode="&#x12e;" d="M-48 -27q-97 -114 -66 -237q28 -106 127 -119q11 -2 21 -2q51 0 98 28q48 29 75 77l-117 66q-10 -18 -28 -29q-18 -10 -31 -8l-3 1q-2 0 -4 2q-5 5 -8 17q-16 61 46 126q38 42 130 105h31v1605h-223v-1583q-27 -25 -48 -49z" />
<glyph unicode="&#x12f;" d="M-48 -27q-97 -114 -66 -237q28 -106 127 -119q11 -2 21 -2q51 0 98 28q48 29 75 77l-117 66q-10 -18 -28 -29q-18 -10 -31 -8l-3 1q-2 0 -4 2q-5 5 -8 17q-16 61 46 126q38 42 130 105h31v1605h-223v-1583q-27 -25 -48 -49z" />
<glyph unicode="&#x130;" d="M0 0h223v1605h-223v-1605zM22 1793h179v178h-179v-178z" />
<glyph unicode="&#x131;" d="M0 0h223v1605h-223v-1605z" />
<glyph unicode="&#x132;" horiz-adv-x="1560" d="M0 0h223v1605h-223v-1605zM1183 76q127 125 127 301v1227h-223v-1227q0 -84 -61 -144q-61 -59 -147 -59q-66 0 -120 37q-55 37 -77 97l-209 -77q46 -125 158 -203q112 -77 248 -77q178 0 304 125z" />
<glyph unicode="&#x133;" horiz-adv-x="1560" d="M0 0h223v1605h-223v-1605zM1183 76q127 125 127 301v1227h-223v-1227q0 -84 -61 -144q-61 -59 -147 -59q-66 0 -120 37q-55 37 -77 97l-209 -77q46 -125 158 -203q112 -77 248 -77q178 0 304 125z" />
<glyph unicode="&#x134;" horiz-adv-x="1087" d="M710 76q127 125 127 301v1227h-223v-1227q0 -84 -61 -144q-61 -59 -147 -59q-66 0 -120 37q-55 37 -77 97l-209 -77q46 -125 158 -203q112 -77 248 -77q178 0 304 125zM733 2188l-357 -249l102 -146l255 178l256 -178l102 146z" />
<glyph unicode="&#x135;" horiz-adv-x="1087" d="M710 76q127 125 127 301v1227h-223v-1227q0 -84 -61 -144q-61 -59 -147 -59q-66 0 -120 37q-55 37 -77 97l-209 -77q46 -125 158 -203q112 -77 248 -77q178 0 304 125zM734 2189l-358 -249l102 -147l256 178l255 -178l102 147z" />
<glyph unicode="&#x136;" horiz-adv-x="1415" d="M1012 1647l-789 -742v698h-223v-1604h223v755l755 -802l162 153l-678 720l703 660zM471 -214v-197h98l-82 -203h71l136 203v197h-223z" />
<glyph unicode="&#x137;" horiz-adv-x="1505" d="M917 1603l-694 -698v698h-223v-1604h223v755l705 -754h312l-778 825l793 779zM516 -214v-197h98l-82 -203h71l136 203v197h-223z" />
<glyph unicode="&#x138;" horiz-adv-x="1505" d="M917 1603l-694 -698v698h-223v-1604h223v755l705 -754h312l-778 825l793 779z" />
<glyph unicode="&#x139;" horiz-adv-x="1289" d="M0 1605v-1605h1039v223h-816v1382h-223zM652 2251l-374 -330l109 -126l374 330z" />
<glyph unicode="&#x13a;" horiz-adv-x="1289" d="M0 1605v-1605h1039v223h-816v1382h-223zM652 2252l-374 -331l109 -126l374 331z" />
<glyph unicode="&#x13b;" horiz-adv-x="1289" d="M0 1605v-1605h1039v223h-816v1382h-223zM408 -214v-197h98l-82 -203h71l136 203v197h-223z" />
<glyph unicode="&#x13c;" horiz-adv-x="1289" d="M0 1605v-1605h1039v223h-816v1382h-223zM408 -214v-197h98l-82 -203h71l136 203v197h-223z" />
<glyph unicode="&#x13d;" horiz-adv-x="1289" d="M0 1605v-1605h1039v223h-816v1382h-223zM811 1604v-197h98l-82 -203h71l136 203v197h-223z" />
<glyph unicode="&#x13e;" horiz-adv-x="1289" d="M0 1605v-1605h1039v223h-816v1382h-223zM811 1604v-197h98l-82 -203h71l136 203v197h-223z" />
<glyph unicode="&#x13f;" horiz-adv-x="1289" d="M0 1605v-1605h1039v223h-816v1382h-223zM719 783h189v188h-189v-188z" />
<glyph unicode="&#x140;" horiz-adv-x="1289" d="M0 1605v-1605h1039v223h-816v1382h-223zM719 783h189v188h-189v-188z" />
<glyph unicode="&#x141;" horiz-adv-x="1289" d="M-199 595l111 -139l88 70v-526h1039v223h-816v479l489 388l-111 139l-378 -300v676h-223v-852z" />
<glyph unicode="&#x142;" horiz-adv-x="1289" d="M-199 595l111 -139l88 70v-526h1039v223h-816v479l489 388l-111 139l-378 -300v676h-223v-852z" />
<glyph unicode="&#x143;" horiz-adv-x="1721" d="M1248 1605v-1248l-1011 1247h-237v-1604h223v1268l1028 -1268h220v1605h-223zM949 2250l-374 -331l108 -126l374 331z" />
<glyph unicode="&#x144;" horiz-adv-x="1721" d="M1248 1605v-1248l-1011 1247h-237v-1604h223v1268l1028 -1268h220v1605h-223zM949 2250l-374 -331l109 -126l374 331z" />
<glyph unicode="&#x145;" horiz-adv-x="1721" d="M1248 1605v-1248l-1011 1247h-237v-1604h223v1268l1028 -1268h220v1605h-223zM624 -214v-197h98l-82 -203h71l136 203v197h-223z" />
<glyph unicode="&#x146;" horiz-adv-x="1721" d="M1248 1605v-1248l-1011 1247h-237v-1604h223v1268l1028 -1268h220v1605h-223zM624 -214v-197h98l-82 -203h71l136 203v197h-223z" />
<glyph unicode="&#x147;" horiz-adv-x="1721" d="M1248 1605v-1248l-1011 1247h-237v-1604h223v1268l1028 -1268h220v1605h-223zM1093 2042l-102 146l-255 -178l-256 178l-102 -146l358 -249z" />
<glyph unicode="&#x148;" horiz-adv-x="1721" d="M1248 1605v-1248l-1011 1247h-237v-1604h223v1268l1028 -1268h220v1605h-223zM1093 2042l-102 146l-256 -178l-255 178l-102 -146l357 -249z" />
<glyph unicode="&#x149;" horiz-adv-x="2037" d="M1564 1605v-1248l-1011 1247h-237v-1604h223v1268l1028 -1268h220v1605h-223zM0 1604v-197h98l-82 -203h71l136 203v197h-223z" />
<glyph unicode="&#x14a;" horiz-adv-x="1593" d="M1110 1467q-203 178 -481 178q-250 0 -406 -136v94h-223v-1604h223v1142q91 171 185 230q80 51 221 51q177 0 314 -107q164 -126 215 -370q38 -180 9 -369q-29 -188 -112 -297q-73 -97 -168 -104h-65v-223h72q204 14 339 193q113 149 152 382q40 233 -9 464 q-63 298 -266 476z" />
<glyph unicode="&#x14b;" horiz-adv-x="1593" d="M1110 1467q-203 178 -481 178q-250 0 -406 -136v94h-223v-1604h223v1142q91 171 185 230q80 51 221 51q177 0 314 -107q164 -126 215 -370q38 -180 9 -369q-29 -188 -112 -297q-73 -97 -168 -104h-65v-223h72q204 14 339 193q113 149 152 382q40 233 -9 464 q-63 298 -266 476z" />
<glyph unicode="&#x14c;" horiz-adv-x="1894" d="M1316 1246q187 -184 187 -443q0 -260 -187 -444q-188 -184 -453 -184t-452 184q-188 184 -188 444q0 259 188 443q187 184 452 184t453 -184zM1473 201q120 118 185 271q68 158 68 331q0 172 -68 330q-65 153 -185 271q-119 118 -274 182q-161 67 -336 67 q-357 0 -610 -249q-119 -118 -185 -271q-68 -158 -68 -330q0 -173 68 -331q66 -153 185 -271q120 -117 274 -182q161 -67 336 -67q357 0 610 249zM506 1793h714v178h-714v-178z" />
<glyph unicode="&#x14d;" horiz-adv-x="1894" d="M1316 1246q187 -184 187 -443q0 -260 -187 -444q-188 -184 -453 -184t-452 184q-188 184 -188 444q0 259 188 443q187 184 452 184t453 -184zM1473 201q120 118 185 271q68 158 68 331q0 172 -68 330q-65 153 -185 271q-119 118 -274 182q-161 67 -336 67 q-357 0 -610 -249q-119 -118 -185 -271q-68 -158 -68 -330q0 -173 68 -331q66 -153 185 -271q120 -117 274 -182q161 -67 336 -67q357 0 610 249zM506 1793h713v178h-713v-178z" />
<glyph unicode="&#x14e;" horiz-adv-x="1894" d="M1316 1246q187 -184 187 -443q0 -260 -187 -444q-188 -184 -453 -184t-452 184q-188 184 -188 444q0 259 188 443q187 184 452 184t453 -184zM1473 201q120 118 185 271q68 158 68 331q0 172 -68 330q-65 153 -185 271q-119 118 -274 182q-161 67 -336 67 q-357 0 -610 -249q-119 -118 -185 -271q-68 -158 -68 -330q0 -173 68 -331q66 -153 185 -271q120 -117 274 -182q161 -67 336 -67q357 0 610 249zM1112 1890q103 98 103 235h-178q0 -63 -51 -109q-51 -45 -123 -45t-123 45q-51 46 -51 109h-178q0 -137 103 -235 q103 -97 249 -97t249 97z" />
<glyph unicode="&#x14f;" horiz-adv-x="1894" d="M1316 1246q187 -184 187 -443q0 -260 -187 -444q-188 -184 -453 -184t-452 184q-188 184 -188 444q0 259 188 443q187 184 452 184t453 -184zM1473 201q120 118 185 271q68 158 68 331q0 172 -68 330q-65 153 -185 271q-119 118 -274 182q-161 67 -336 67 q-357 0 -610 -249q-119 -118 -185 -271q-68 -158 -68 -330q0 -173 68 -331q66 -153 185 -271q120 -117 274 -182q161 -67 336 -67q357 0 610 249zM1112 1890q104 98 104 235h-179q0 -63 -51 -109q-51 -45 -123 -45t-123 45q-51 46 -51 109h-178q0 -137 103 -235 q104 -97 249 -97q146 0 249 97z" />
<glyph unicode="&#x150;" horiz-adv-x="1894" d="M1316 1246q187 -184 187 -443q0 -260 -187 -444q-188 -184 -453 -184t-452 184q-188 184 -188 444q0 259 188 443q187 184 452 184t453 -184zM1473 201q120 118 185 271q68 158 68 331q0 172 -68 330q-65 153 -185 271q-119 118 -274 182q-161 67 -336 67 q-357 0 -610 -249q-119 -118 -185 -271q-68 -158 -68 -330q0 -173 68 -331q66 -153 185 -271q120 -117 274 -182q161 -67 336 -67q357 0 610 249zM1017 1793h228l180 514h-228zM579 1793h228l180 514h-228z" />
<glyph unicode="&#x151;" horiz-adv-x="1894" d="M1316 1246q187 -184 187 -443q0 -260 -187 -444q-188 -184 -453 -184t-452 184q-188 184 -188 444q0 259 188 443q187 184 452 184t453 -184zM1473 201q120 118 185 271q68 158 68 331q0 172 -68 330q-65 153 -185 271q-119 118 -274 182q-161 67 -336 67 q-357 0 -610 -249q-119 -118 -185 -271q-68 -158 -68 -330q0 -173 68 -331q66 -153 185 -271q120 -117 274 -182q161 -67 336 -67q357 0 610 249zM1017 1793h228l180 514h-228zM579 1793h228l180 514h-228z" />
<glyph unicode="&#x152;" horiz-adv-x="2871" d="M411 1246q187 184 452 184t453 -184q187 -184 187 -443q0 -260 -187 -444q-188 -184 -453 -184t-452 184q-188 184 -188 444q0 259 188 443zM1515 0h1106v223h-884v569h702v222h-702v368h862v223h-1084v-245q-122 137 -288 214q-172 79 -364 79q-357 0 -610 -249 q-119 -118 -185 -271q-68 -158 -68 -330q0 -173 68 -331q66 -153 185 -271q120 -117 275 -182q160 -67 335 -67q192 0 364 79q166 77 288 215v-246z" />
<glyph unicode="&#x153;" horiz-adv-x="2871" d="M411 1246q187 184 452 184t453 -184q187 -184 187 -443q0 -260 -187 -444q-188 -184 -453 -184t-452 184q-188 184 -188 444q0 259 188 443zM1515 0h1106v223h-884v569h702v222h-702v368h862v223h-1084v-245q-122 137 -288 214q-172 79 -364 79q-357 0 -610 -249 q-119 -118 -185 -271q-68 -158 -68 -330q0 -173 68 -331q66 -153 185 -271q120 -117 275 -182q160 -67 335 -67q192 0 364 79q166 77 288 215v-246z" />
<glyph unicode="&#x154;" horiz-adv-x="1292" d="M223 1381h283q123 0 210 -76q87 -75 87 -181t-87 -181t-210 -75h-283v513zM223 645h153l483 -694l183 127l-405 582q169 41 278 169q111 130 111 295q0 198 -152 339q-153 141 -368 141h-506v-1605h223v646zM734 2249l-374 -331l109 -126l374 331z" />
<glyph unicode="&#x155;" horiz-adv-x="1348" d="M223 1381h283q123 0 210 -76q87 -75 87 -181t-87 -181t-210 -75h-283v513zM1098 -1l-461 661q169 41 278 169q111 130 111 295q0 198 -152 339q-153 141 -368 141h-506v-1605h223v646h153l451 -646h271zM734 2249l-374 -331l109 -126l374 331z" />
<glyph unicode="&#x156;" horiz-adv-x="1292" d="M223 1381h283q123 0 210 -76q87 -75 87 -181t-87 -181t-210 -75h-283v513zM223 645h153l483 -694l183 127l-405 582q169 41 278 169q111 130 111 295q0 198 -152 339q-153 141 -368 141h-506v-1605h223v646zM410 -214v-197h98l-82 -203h71l136 203v197h-223z" />
<glyph unicode="&#x157;" horiz-adv-x="1348" d="M223 1381h283q123 0 210 -76q87 -75 87 -181t-87 -181t-210 -75h-283v513zM1098 -1l-461 661q169 41 278 169q111 130 111 295q0 198 -152 339q-153 141 -368 141h-506v-1605h223v646h153l451 -646h271zM410 -214v-197h98l-82 -203h71l136 203v197h-223z" />
<glyph unicode="&#x158;" horiz-adv-x="1292" d="M223 1381h283q123 0 210 -76q87 -75 87 -181t-87 -181t-210 -75h-283v513zM223 645h153l483 -694l183 127l-405 582q169 41 278 169q111 130 111 295q0 198 -152 339q-153 141 -368 141h-506v-1605h223v646zM879 2041l-102 146l-256 -178l-255 178l-102 -146l357 -249z " />
<glyph unicode="&#x159;" horiz-adv-x="1348" d="M223 1381h283q123 0 210 -76q87 -75 87 -181t-87 -181t-210 -75h-283v513zM1098 -1l-461 661q169 41 278 169q111 130 111 295q0 198 -152 339q-153 141 -368 141h-506v-1605h223v646h153l451 -646h271zM847 2042l-102 146l-256 -178l-255 178l-102 -146l357 -249z" />
<glyph unicode="&#x15a;" horiz-adv-x="1321" d="M1058 198q95 157 47 341q-43 165 -190 278q-58 44 -140 87q-33 17 -74 37l-37 17l-36 16l-59 27q-216 100 -267 196q-19 33 -16 66q1 12 5 25l4 10l3 8q24 56 76 87q39 24 92 33q89 15 182 -14t146 -88l166 149q-92 102 -238 150q-147 47 -292 23q-247 -41 -337 -253 q-148 -348 381 -594h1l3 -1l58 -27q163 -74 226 -118q102 -73 127 -170q24 -93 -22 -169q-57 -95 -193 -126q-140 -32 -274 13t-232 157l-168 -146q110 -126 252 -192t295 -68q359 0 511 246zM774 2250l-374 -331l109 -126l374 331z" />
<glyph unicode="&#x15b;" horiz-adv-x="1321" d="M1058 198q95 157 47 341q-43 165 -190 278q-58 44 -140 87q-33 17 -74 37l-37 17l-36 16l-59 27q-216 100 -267 196q-19 33 -16 66q1 12 5 25l4 10l3 8q24 56 76 87q39 24 92 33q89 15 182 -14t146 -88l166 149q-92 102 -238 150q-147 47 -292 23q-247 -41 -337 -253 q-148 -348 381 -594h1l3 -1l58 -27q163 -74 226 -118q102 -73 127 -170q24 -93 -22 -169q-57 -95 -193 -126q-140 -32 -274 13t-232 157l-168 -146q110 -126 252 -192t295 -68q359 0 511 246zM774 2250l-374 -331l109 -126l374 331z" />
<glyph unicode="&#x15c;" horiz-adv-x="1321" d="M1058 198q95 157 47 341q-43 165 -190 278q-58 44 -140 87q-33 17 -74 37l-37 17l-36 16l-59 27q-216 100 -267 196q-19 33 -16 66q1 12 5 25l4 10l3 8q24 56 76 87q39 24 92 33q89 15 182 -14t146 -88l166 149q-92 102 -238 150q-147 47 -292 23q-247 -41 -337 -253 q-148 -348 381 -594h1l3 -1l58 -27q163 -74 226 -118q102 -73 127 -170q24 -93 -22 -169q-57 -95 -193 -126q-140 -32 -274 13t-232 157l-168 -146q110 -126 252 -192t295 -68q359 0 511 246zM560 2188l-357 -249l102 -146l255 178l256 -178l102 146z" />
<glyph unicode="&#x15d;" horiz-adv-x="1321" d="M1058 198q95 157 47 341q-43 165 -190 278q-58 44 -140 87q-33 17 -74 37l-37 17l-36 16l-59 27q-216 100 -267 196q-19 33 -16 66q1 12 5 25l4 10l3 8q24 56 76 87q39 24 92 33q89 15 182 -14t146 -88l166 149q-92 102 -238 150q-147 47 -292 23q-247 -41 -337 -253 q-148 -348 381 -594h1l3 -1l58 -27q163 -74 226 -118q102 -73 127 -170q24 -93 -22 -169q-57 -95 -193 -126q-140 -32 -274 13t-232 157l-168 -146q110 -126 252 -192t295 -68q359 0 511 246zM560 2188l-357 -249l102 -146l255 178l256 -178l102 146z" />
<glyph unicode="&#x15e;" horiz-adv-x="1321" d="M487 -229q138 -7 134 -92t-196 -34l-93 -132q156 -71 258 -51q90 18 139 74q54 64 60 139q5 77 -43 136q-10 14 -27 29l-28 22l34 109q226 52 333 227q95 157 47 341q-43 165 -190 278q-58 44 -140 87q-33 17 -74 37l-37 17l-36 16l-59 27q-216 100 -267 196 q-19 33 -16 66q1 12 5 25l4 10l3 8q24 56 76 87q39 24 92 33q89 15 182 -14t146 -88l166 149q-92 102 -238 150q-147 47 -292 23q-247 -41 -337 -253q-148 -348 381 -594h1l3 -1l58 -27q163 -74 226 -118q102 -73 127 -170q24 -93 -22 -169q-57 -95 -193 -126 q-140 -32 -274 13t-232 157l-168 -146q110 -126 255 -193q139 -65 292 -67q-25 -74 -60 -181z" />
<glyph unicode="&#x15f;" horiz-adv-x="1321" d="M487 -229q138 -7 134 -92t-196 -34l-93 -132q156 -71 258 -51q90 18 139 74q54 64 60 139q5 77 -43 136q-10 14 -27 29l-28 22l34 109q226 52 333 227q95 157 47 341q-43 165 -190 278q-58 44 -140 87q-33 17 -74 37l-37 17l-36 16l-59 27q-216 100 -267 196 q-19 33 -16 66q1 12 5 25l4 10l3 8q24 56 76 87q39 24 92 33q89 15 182 -14t146 -88l166 149q-92 102 -238 150q-147 47 -292 23q-247 -41 -337 -253q-148 -348 381 -594h1l3 -1l58 -27q163 -74 226 -118q102 -73 127 -170q24 -93 -22 -169q-57 -95 -193 -126 q-140 -32 -274 13t-232 157l-168 -146q110 -126 255 -193q139 -65 292 -67q-25 -74 -60 -181z" />
<glyph unicode="&#x160;" horiz-adv-x="1321" d="M1058 198q95 157 47 341q-43 165 -190 278q-58 44 -140 87q-33 17 -74 37l-37 17l-36 16l-59 27q-216 100 -267 196q-19 33 -16 66q1 12 5 25l4 10l3 8q24 56 76 87q39 24 92 33q89 15 182 -14t146 -88l166 149q-92 102 -238 150q-147 47 -292 23q-247 -41 -337 -253 q-148 -348 381 -594h1l3 -1l58 -27q163 -74 226 -118q102 -73 127 -170q24 -93 -22 -169q-57 -95 -193 -126q-140 -32 -274 13t-232 157l-168 -146q110 -126 252 -192t295 -68q359 0 511 246zM918 2042l-102 146l-256 -178l-255 178l-102 -146l357 -249z" />
<glyph unicode="&#x161;" horiz-adv-x="1321" d="M1058 198q95 157 47 341q-43 165 -190 278q-58 44 -140 87q-33 17 -74 37l-37 17l-36 16l-59 27q-216 100 -267 196q-19 33 -16 66q1 12 5 25l4 10l3 8q24 56 76 87q39 24 92 33q89 15 182 -14t146 -88l166 149q-92 102 -238 150q-147 47 -292 23q-247 -41 -337 -253 q-148 -348 381 -594h1l3 -1l58 -27q163 -74 226 -118q102 -73 127 -170q24 -93 -22 -169q-57 -95 -193 -126q-140 -32 -274 13t-232 157l-168 -146q110 -126 252 -192t295 -68q359 0 511 246zM918 2042l-102 146l-256 -178l-255 178l-102 -146l357 -249z" />
<glyph unicode="&#x162;" horiz-adv-x="1550" d="M466 -229q137 -7 133 -92t-195 -34l-94 -132q156 -71 258 -51q90 18 140 74q54 64 59 139q6 77 -42 136q-11 14 -27 28l-28 23l43 138h49v1381h538v223h-1300v-223h539v-1381h2q-29 -85 -75 -229z" />
<glyph unicode="&#x163;" horiz-adv-x="1550" d="M466 -229q137 -7 133 -92t-195 -34l-94 -132q156 -71 258 -51q90 18 140 74q54 64 59 139q6 77 -42 136q-11 14 -27 28l-28 23l43 138h49v1381h538v223h-1300v-223h539v-1381h2q-29 -85 -75 -229z" />
<glyph unicode="&#x164;" horiz-adv-x="1550" d="M539 1605v-1h-539v-223h539v-1381h223v1381h538v223h-538v1h-223zM1008 2040l-102 146l-256 -178l-255 178l-102 -146l357 -249z" />
<glyph unicode="&#x165;" horiz-adv-x="1550" d="M539 1605v-1h-539v-223h539v-1381h223v1381h538v223h-538v1h-223zM1007 2040l-102 147l-255 -178l-255 178l-102 -147l357 -249z" />
<glyph unicode="&#x166;" horiz-adv-x="1550" d="M226 892v-210h313v-682h223v682h313v210h-313v489h538v223h-538v1h-223v-1h-539v-223h539v-489h-313z" />
<glyph unicode="&#x167;" horiz-adv-x="1550" d="M226 892v-210h313v-682h223v682h313v210h-313v489h538v223h-538v1h-223v-1h-539v-223h539v-489h-313z" />
<glyph unicode="&#x168;" horiz-adv-x="1630" d="M1157 632q0 -190 -137 -324t-330 -134t-330 134t-137 324v972h-223v-972q0 -282 202 -481q203 -200 488 -200q286 0 488 200q202 199 202 481v972h-223v-972zM586 1883q24 -9 55 -23q150 -67 207 -67q51 -1 95 18q113 49 168 218l-169 55q-30 -92 -69 -109q-28 -12 -88 9 q-24 9 -56 23q-84 46 -123 56q-98 26 -174 -6q-110 -46 -163 -204l168 -57q28 82 63 96q27 12 86 -9z" />
<glyph unicode="&#x169;" horiz-adv-x="1630" d="M1157 632q0 -190 -137 -324t-330 -134t-330 134t-137 324v972h-223v-972q0 -282 202 -481q203 -200 488 -200q286 0 488 200q202 199 202 481v972h-223v-972zM586 1883q24 -9 55 -23q150 -67 208 -67q50 -1 94 18q114 49 168 218l-169 55q-30 -92 -69 -109q-28 -12 -88 9 q-24 9 -55 23q-85 46 -124 56q-98 26 -174 -6q-110 -46 -163 -204l169 -57q27 82 62 96q27 12 86 -9z" />
<glyph unicode="&#x16a;" horiz-adv-x="1630" d="M1157 632q0 -190 -137 -324t-330 -134t-330 134t-137 324v972h-223v-972q0 -282 202 -481q203 -200 488 -200q286 0 488 200q202 199 202 481v972h-223v-972zM939 1890q103 98 103 235h-178q0 -63 -51 -109q-51 -45 -123 -45t-123 45q-51 46 -51 109h-178 q0 -137 103 -235q103 -97 249 -97t249 97z" />
<glyph unicode="&#x16b;" horiz-adv-x="1630" d="M1157 632q0 -190 -137 -324t-330 -134t-330 134t-137 324v972h-223v-972q0 -282 202 -481q203 -200 488 -200q286 0 488 200q202 199 202 481v972h-223v-972zM333 1793h713v178h-713v-178z" />
<glyph unicode="&#x16c;" horiz-adv-x="1630" d="M1157 632q0 -190 -137 -324t-330 -134t-330 134t-137 324v972h-223v-972q0 -282 202 -481q203 -200 488 -200q286 0 488 200q202 199 202 481v972h-223v-972zM939 1890q103 98 103 235h-178q0 -63 -51 -109q-51 -45 -123 -45t-123 45q-51 46 -51 109h-178 q0 -137 103 -235q103 -97 249 -97t249 97z" />
<glyph unicode="&#x16d;" horiz-adv-x="1630" d="M1157 632q0 -190 -137 -324t-330 -134t-330 134t-137 324v972h-223v-972q0 -282 202 -481q203 -200 488 -200q286 0 488 200q202 199 202 481v972h-223v-972zM939 1890q104 98 104 235h-179q0 -63 -51 -109q-51 -45 -123 -45t-123 45q-51 46 -51 109h-178 q0 -137 103 -235q104 -97 249 -97q146 0 249 97z" />
<glyph unicode="&#x16e;" horiz-adv-x="1630" d="M1157 632q0 -190 -137 -324t-330 -134t-330 134t-137 324v972h-223v-972q0 -282 202 -481q203 -200 488 -200q286 0 488 200q202 199 202 481v972h-223v-972zM651 1935q-16 16 -16 38t16 38q17 16 39 16q23 0 39 -16q17 -16 17 -38t-17 -38q-16 -16 -39 -16q-22 0 -39 16 zM857 2043q-14 32 -39 57t-57 38q-34 14 -71 14q-75 0 -128 -52q-25 -25 -39 -57q-14 -34 -14 -70q0 -37 14 -70q14 -32 39 -57t58 -39t70 -14q75 0 128 53q25 25 39 57q14 33 14 70q0 36 -14 70z" />
<glyph unicode="&#x16f;" horiz-adv-x="1630" d="M1157 632q0 -190 -137 -324t-330 -134t-330 134t-137 324v972h-223v-972q0 -282 202 -481q203 -200 488 -200q286 0 488 200q202 199 202 481v972h-223v-972zM651 1935q-16 16 -16 38t16 38q17 16 39 16q23 0 39 -16q17 -16 17 -38t-17 -38q-16 -16 -39 -16q-22 0 -39 16 zM857 2043q-14 32 -39 57t-57 38q-34 14 -71 14q-75 0 -128 -52q-25 -25 -39 -57q-14 -34 -14 -70q0 -37 14 -70q14 -32 39 -57t58 -39t70 -14q75 0 128 53q25 25 39 57q14 33 14 70q0 36 -14 70z" />
<glyph unicode="&#x170;" horiz-adv-x="1630" d="M1157 632q0 -190 -137 -324t-330 -134t-330 134t-137 324v972h-223v-972q0 -282 202 -481q203 -200 488 -200q286 0 488 200q202 199 202 481v972h-223v-972zM795 1793h228l180 514h-228zM357 1793h228l180 514h-228z" />
<glyph unicode="&#x171;" horiz-adv-x="1630" d="M1157 632q0 -190 -137 -324t-330 -134t-330 134t-137 324v972h-223v-972q0 -282 202 -481q203 -200 488 -200q286 0 488 200q202 199 202 481v972h-223v-972zM795 1793h228l180 514h-228zM357 1793h228l180 514h-228z" />
<glyph unicode="&#x172;" horiz-adv-x="1630" d="M570 -67q-97 -114 -65 -237q27 -106 126 -120q11 -1 22 -1q51 0 98 28q47 29 74 77l-116 66q-10 -18 -29 -29q-17 -10 -31 -8l-3 1q-2 0 -4 2q-5 5 -8 17q-15 61 46 126q38 42 132 106q208 34 366 190q202 199 202 481v972h-223v-972q0 -190 -137 -324t-330 -134 t-330 134t-137 324v972h-223v-972q0 -282 202 -481q167 -165 390 -194q-12 -12 -22 -24z" />
<glyph unicode="&#x173;" horiz-adv-x="1630" d="M570 -67q-97 -114 -65 -237q27 -106 126 -120q11 -1 22 -1q51 0 98 28q47 29 74 77l-116 66q-10 -18 -29 -29q-17 -10 -31 -8l-3 1q-2 0 -4 2q-5 5 -8 17q-15 61 46 126q38 42 132 106q208 34 366 190q202 199 202 481v972h-223v-972q0 -190 -137 -324t-330 -134 t-330 134t-137 324v972h-223v-972q0 -282 202 -481q167 -165 390 -194q-12 -12 -22 -24z" />
<glyph unicode="&#x174;" horiz-adv-x="2467" d="M2006 1652l-407 -1243l-389 1195h-200l-391 -1195l-407 1240l-212 -69l518 -1580h201l391 1192l388 -1192h201l518 1582zM1108 2187l-357 -249l102 -146l255 178l256 -178l102 146z" />
<glyph unicode="&#x175;" horiz-adv-x="2481" d="M1997 1609l-391 -1200l-389 1195h-200l-391 -1195l-392 1200h-234l525 -1609h201l391 1192l388 -1192h201l525 1609h-234zM1115 2188l-357 -249l102 -146l255 178l256 -178l102 146z" />
<glyph unicode="&#x176;" horiz-adv-x="1648" d="M1217 1652l-518 -723l-518 723l-181 -130l589 -823v-699h223v704l586 818zM699 2187l-357 -249l102 -146l255 178l256 -178l102 146z" />
<glyph unicode="&#x177;" horiz-adv-x="1767" d="M1233 1604l-474 -675l-483 675h-276l649 -905v-699h223v704l645 900h-284zM758 2188l-357 -249l102 -146l255 178l256 -178l102 146z" />
<glyph unicode="&#x178;" horiz-adv-x="1648" d="M1217 1652l-518 -723l-518 723l-181 -130l589 -823v-699h223v704l586 818zM368 1972h179v-178h-179v178zM870 1972h179v-178h-179v178z" />
<glyph unicode="&#x179;" horiz-adv-x="1497" d="M0 1604v-223h849l-847 -1381h1228v223h-830l847 1381h-1247zM837 2250l-374 -331l108 -126l374 331z" />
<glyph unicode="&#x17a;" horiz-adv-x="1497" d="M0 1604v-223h849l-847 -1381h1228v223h-830l847 1381h-1247zM837 2250l-374 -331l109 -126l374 331z" />
<glyph unicode="&#x17b;" horiz-adv-x="1497" d="M0 1604v-223h849l-847 -1381h1228v223h-830l847 1381h-1247zM534 1793h179v178h-179v-178z" />
<glyph unicode="&#x17c;" horiz-adv-x="1497" d="M0 1604v-223h849l-847 -1381h1228v223h-830l847 1381h-1247zM534 1793h179v178h-179v-178z" />
<glyph unicode="&#x17d;" horiz-adv-x="1497" d="M0 1604v-223h849l-847 -1381h1228v223h-830l847 1381h-1247zM981 2042l-102 146l-255 -178l-256 178l-102 -146l358 -249z" />
<glyph unicode="&#x17e;" horiz-adv-x="1497" d="M0 1604v-223h849l-847 -1381h1228v223h-830l847 1381h-1247zM981 2042l-102 146l-256 -178l-255 178l-102 -146l357 -249z" />
<glyph unicode="&#x2c6;" horiz-adv-x="965" d="M357 2188l-357 -249l102 -146l255 178l256 -178l102 146z" />
<glyph unicode="&#x2c7;" horiz-adv-x="965" d="M715 2042l-102 146l-256 -178l-255 178l-102 -146l357 -249z" />
<glyph unicode="&#x2c9;" horiz-adv-x="963" d="M0 1793h713v178h-713v-178z" />
<glyph unicode="&#x2d8;" horiz-adv-x="955" d="M601 1890q104 98 104 235h-179q0 -63 -51 -109q-51 -45 -123 -45t-123 45q-51 46 -51 109h-178q0 -137 103 -235q104 -97 249 -97q146 0 249 97z" />
<glyph unicode="&#x2d9;" horiz-adv-x="429" d="M0 1793h179v178h-179v-178z" />
<glyph unicode="&#x2da;" horiz-adv-x="612" d="M142 1935q-16 16 -16 38t16 38q17 16 39 16q23 0 39 -16q17 -16 17 -38t-17 -38q-16 -16 -39 -16q-22 0 -39 16zM348 2043q-14 32 -39 57t-57 38q-34 14 -71 14q-75 0 -128 -52q-25 -25 -39 -57q-14 -34 -14 -70q0 -37 14 -70q14 -32 39 -57t58 -39t70 -14q75 0 128 53 q25 25 39 57q14 33 14 70q0 36 -14 70z" />
<glyph unicode="&#x2db;" horiz-adv-x="608" d="M158 -383q-99 13 -126 119q-32 123 65 237q36 42 92 85q22 17 49 36l23 15l22 15l75 -110l-1 -1q-107 -72 -150 -118q-61 -65 -46 -126q4 -12 8 -17q2 -2 4 -2l3 -1q14 -2 31 8q19 11 29 29l116 -66q-27 -48 -74 -77q-47 -28 -98 -28q-11 0 -22 2z" />
<glyph unicode="&#x2dc;" horiz-adv-x="1092" d="M317 1883q24 -9 55 -23q150 -67 208 -67q50 -1 94 18q114 49 168 218l-169 55q-30 -92 -69 -109q-28 -12 -88 9q-24 9 -55 23q-85 46 -124 56q-98 26 -174 -6q-110 -46 -163 -204l169 -57q27 82 62 96q27 12 86 -9z" />
<glyph unicode="&#x2dd;" horiz-adv-x="1096" d="M438 1793h228l180 514h-228zM0 1793h228l180 514h-228z" />
<glyph unicode="&#x326;" d="M0 -214v-197h98l-82 -203h71l136 203v197h-223z" />
<glyph unicode="&#x400;" horiz-adv-x="1356" d="M0 1605v-1605h1106v223h-883v568h701v223h-701v367h861v223zM231 2123l374 -331l109 126l-374 331z" />
<glyph unicode="&#x401;" horiz-adv-x="1356" d="M0 1605v-1605h1106v223h-883v568h701v223h-701v367h861v224h-1084zM182 1972h179v-178h-179v178zM744 1972h179v-178h-179v178z" />
<glyph unicode="&#x402;" horiz-adv-x="1864" d="M539 -1h222v661q59 76 123 105q63 29 170 29q133 0 235 -55q122 -64 157 -189q22 -75 10 -155q-11 -81 -51 -137q-55 -77 -152 -83h-48v-223h56q207 11 326 177q70 98 90 228q19 130 -17 255q-53 184 -218 294q-164 110 -388 110q-176 0 -293 -63v427h539v223h-1300v-223 h539v-1381z" />
<glyph unicode="&#x403;" horiz-adv-x="1334" d="M0 1605v-1605h223v1381h861v223h-861v1h-223zM755 2249l-374 -331l109 -126l374 331z" />
<glyph unicode="&#x404;" horiz-adv-x="1678" d="M1301 318l127 -184q-158 -110 -313 -151q-115 -31 -252 -31q-357 0 -610 249q-119 118 -186 271q-67 159 -67 331t67 330q68 156 186 271q120 118 274 182q160 67 336 67q142 0 252 -31q158 -42 313 -151l-127 -183q-117 82 -230 116q-93 26 -208 26q-234 0 -413 -148 q-177 -146 -217 -368h684v-223h-684q40 -220 217 -368q180 -148 413 -148q235 0 438 143z" />
<glyph unicode="&#x405;" horiz-adv-x="1321" d="M1058 198q95 157 47 341q-43 165 -190 278q-58 44 -140 87q-33 17 -74 37l-37 17l-36 16l-59 27q-216 100 -267 196q-19 33 -16 66q1 12 5 25l4 10l3 8q24 56 76 87q39 24 92 33q89 15 182 -14t146 -88l166 149q-92 102 -238 150q-147 47 -292 23q-247 -41 -337 -253 q-148 -348 381 -594h1l3 -1l58 -27q163 -74 226 -118q102 -73 127 -170q24 -93 -22 -169q-57 -95 -193 -126q-140 -32 -274 13t-232 157l-168 -146q110 -126 252 -192t295 -68q359 0 511 246z" />
<glyph unicode="&#x406;" d="M0 0h223v1605h-223v-1605z" />
<glyph unicode="&#x407;" d="M0 0h223v1605h-223v-1605zM-229 1972h179v-179h-179v179zM273 1972h179v-179h-179v179z" />
<glyph unicode="&#x408;" horiz-adv-x="1087" d="M710 76q127 125 127 301v1227h-223v-1227q0 -84 -61 -144q-61 -59 -147 -59q-66 0 -120 37q-55 37 -77 97l-209 -77q46 -125 158 -203q112 -77 248 -77q178 0 304 125z" />
<glyph unicode="&#x409;" horiz-adv-x="2408" d="M1218 823h454q143 0 244 -88q102 -88 102 -212t-102 -212q-101 -88 -244 -88h-454v600zM423 1381h573v-1381h676q235 0 402 153q166 154 166 370t-166 370q-167 153 -402 153h-454v558h-222v0h-796v-1273q0 -65 -44 -111q-43 -46 -104 -46h-52v-223h52q153 0 262 111 q109 112 109 269v1050z" />
<glyph unicode="&#x40a;" horiz-adv-x="2360" d="M1170 824h454q143 0 244 -88t101 -212q0 -125 -101 -213t-244 -88h-454v601zM948 0h676q235 0 402 154q166 153 166 370q0 216 -166 369q-167 154 -402 154h-454v558h-222v-558h-725v558h-223v-1605h223v824h725v-824z" />
<glyph unicode="&#x40b;" horiz-adv-x="1933" d="M1099 793q30 -2 59 -7q76 -14 135 -44q167 -88 167 -298v-444h223v444q0 258 -173 416t-456 158q-176 0 -293 -64v427h539v223h-539v1h-222v-1h-539v-223h539v-1381h222v661q59 77 123 106q63 28 170 28q22 0 45 -2z" />
<glyph unicode="&#x40c;" horiz-adv-x="1570" d="M1230 93l-586 720q69 61 131 156q24 37 49 83l23 42l21 40q91 174 149 228q36 33 110 51q79 19 138 4l55 216q-112 29 -244 -3q-132 -31 -211 -105q-57 -54 -110 -136q-21 -33 -44 -75l-21 -39l-20 -38q-97 -185 -163 -248q-107 -101 -284 -95v711h-223v-1604h223v671 l11 -1h10q111 0 204 30l609 -749zM833 2249l-374 -331l109 -126l374 331z" />
<glyph unicode="&#x40d;" horiz-adv-x="1721" d="M0 1605v-1605h220l1028 1268v-1268h223v1604h-237l-1011 -1247v1248h-223zM414 2123l374 -331l109 126l-374 331z" />
<glyph unicode="&#x40e;" horiz-adv-x="1893" d="M379 220l-110 -194q130 -73 264 -73q72 0 141 21q225 69 346 312l623 1268l-201 98l-587 -1196l-660 1192l-195 -108l716 -1292q-51 -44 -107 -61q-112 -34 -230 33zM1081 1889q103 98 103 235h-178q0 -64 -51 -109t-123 -45t-123 45t-51 109h-179q0 -137 104 -235 q103 -97 249 -97q145 0 249 97z" />
<glyph unicode="&#x40f;" horiz-adv-x="1518" d="M1045 1604v-1381h-822v1381h-223v-1604h523v-201h222v201h523v1604h-223z" />
<glyph unicode="&#x410;" horiz-adv-x="1800" d="M678 1604l-678 -1560l205 -89l172 398h797l172 -398l204 89l-673 1560h-199zM777 1273l301 -698h-604z" />
<glyph unicode="&#x411;" horiz-adv-x="1495" d="M223 824h453q143 0 244 -88q102 -88 102 -212q0 -125 -102 -213q-101 -88 -244 -88h-453v601zM1078 893q-167 154 -402 154h-453v334h852v223l-1075 1v-1605h676q235 0 402 154q167 153 167 370q0 216 -167 369z" />
<glyph unicode="&#x412;" horiz-adv-x="1330" d="M223 765h403q129 0 221 -80q92 -79 92 -191t-92 -192q-92 -79 -221 -79h-403v542zM223 1381h317q89 0 153 -57q63 -58 63 -140q0 -77 -58 -134t-141 -62h-334v393zM1085 748q-74 113 -200 177q94 115 94 259q0 174 -129 297q-128 123 -310 123l-540 1v-1605h626 q221 0 379 145q157 145 157 349q0 137 -77 254z" />
<glyph unicode="&#x413;" horiz-adv-x="1334" d="M0 1605v-1605h223v1381h861v223h-861v1h-223z" />
<glyph unicode="&#x414;" horiz-adv-x="1642" d="M573 1381h551v-1159h-686q135 264 135 680v479zM223 -1h1060v-200h223v423h-160v1382h-996v-702q0 -285 -77 -498q-31 -85 -66 -135q-33 -47 -58 -47h-149v-423h223v200z" />
<glyph unicode="&#x415;" horiz-adv-x="1356" d="M0 1605v-1605h1106v223h-883v568h701v223h-701v367h861v223z" />
<glyph unicode="&#x416;" horiz-adv-x="2245" d="M1825 1414q63 17 108 4l62 214q-104 30 -225 -2q-122 -33 -195 -111q-55 -58 -99 -148q-17 -36 -35 -83l-17 -42l-15 -42q-64 -175 -112 -232q-67 -80 -188 -78v711h-223v-711q-121 -2 -188 78q-47 57 -112 232l-15 42l-16 42q-19 47 -36 83q-44 90 -99 148 q-73 78 -194 111q-122 32 -226 2l62 -214q45 13 108 -4q60 -17 88 -47q52 -55 119 -240l16 -43l18 -45q20 -51 40 -91q52 -102 118 -164l-483 -706l184 -126l499 730q51 -11 110 -11h7v-671h223v671h7q59 0 112 11l516 -730l182 129l-498 704q65 62 116 164q20 39 41 90 l17 45l16 43q68 185 120 240q28 30 87 47z" />
<glyph unicode="&#x417;" horiz-adv-x="1278" d="M318 261q-41 34 -72 79q-24 35 -41 75l-205 -87q76 -179 228 -278q151 -98 350 -98q220 0 376 154t156 371q0 126 -57 237q-56 108 -154 182q144 130 144 320q0 181 -130 309t-312 128q-155 0 -286 -84q-132 -84 -185 -217l208 -82q27 69 102 114q74 46 161 46 q90 0 155 -63q64 -62 64 -151q0 -88 -64 -151q-65 -62 -155 -62l-112 -1v-222h89q128 0 219 -89q90 -89 90 -214t-90 -213q-91 -89 -219 -89q-156 0 -260 86z" />
<glyph unicode="&#x418;" horiz-adv-x="1721" d="M0 1605v-1605h220l1028 1268v-1268h223v1604h-237l-1011 -1247v1248h-223z" />
<glyph unicode="&#x419;" horiz-adv-x="1721" d="M0 1605v-1605h220l1028 1268v-1268h223v1604h-237l-1011 -1247v1248h-223zM984 1889q104 98 104 235h-179q0 -63 -51 -109q-51 -45 -123 -45t-123 45q-51 46 -51 109h-178q0 -137 103 -235q104 -97 249 -97q146 0 249 97z" />
<glyph unicode="&#x41a;" horiz-adv-x="1570" d="M1230 93l-586 720q69 61 131 156q24 37 49 83l23 42l21 40q91 174 149 228q36 33 110 51q79 19 138 4l55 216q-112 29 -244 -3q-132 -31 -211 -105q-57 -54 -110 -136q-21 -33 -44 -75l-21 -39l-20 -38q-97 -185 -163 -248q-107 -101 -284 -95v711h-223v-1604h223v671 l11 -1h10q111 0 204 30l609 -749z" />
<glyph unicode="&#x41b;" horiz-adv-x="1580" d="M423 1381h684v-1382h223v1605h-1130v-1273q0 -65 -44 -111q-43 -46 -105 -46h-51v-223h51q154 0 263 111q109 112 109 269v1050z" />
<glyph unicode="&#x41c;" horiz-adv-x="1910" d="M1425 1604l-595 -872l-595 872h-235v-1604h223v1227l607 -890l608 890v-1227h222v1604h-235z" />
<glyph unicode="&#x41d;" horiz-adv-x="1632" d="M1159 1605v-613h-936v613h-223v-1605h223v769h936v-769h223v1605h-223z" />
<glyph unicode="&#x41e;" horiz-adv-x="1894" d="M1316 1246q187 -184 187 -443q0 -260 -187 -444q-188 -184 -453 -184t-452 184q-188 184 -188 444q0 259 188 443q187 184 452 184t453 -184zM1473 201q120 118 185 271q68 158 68 331q0 172 -68 330q-65 153 -185 271q-119 118 -274 182q-161 67 -336 67 q-357 0 -610 -249q-119 -118 -185 -271q-68 -158 -68 -330q0 -173 68 -331q66 -153 185 -271q120 -117 274 -182q161 -67 336 -67q357 0 610 249z" />
<glyph unicode="&#x41f;" horiz-adv-x="1420" d="M0 1604v-1604h223v1382h724v-1382h223v1604h-1170z" />
<glyph unicode="&#x420;" horiz-adv-x="1279" d="M223 1381h319q143 0 245 -88q101 -88 101 -212t-101 -212q-102 -88 -245 -88h-319v600zM0 0h223v558h319q235 0 402 153q167 154 167 370t-167 370q-166 153 -402 153l-542 1v-1605z" />
<glyph unicode="&#x421;" horiz-adv-x="1679" d="M1116 -17q157 42 313 151l-127 183q-119 -83 -231 -115q-91 -27 -208 -27q-265 0 -452 184q-188 184 -188 444q0 259 188 443q187 184 452 184q234 0 439 -142l127 183q-156 109 -313 151q-114 31 -253 31q-357 0 -610 -249q-119 -118 -185 -271q-68 -158 -68 -330 q0 -173 68 -331q66 -153 185 -271q120 -117 274 -182q161 -67 336 -67q139 0 253 31z" />
<glyph unicode="&#x422;" horiz-adv-x="1550" d="M539 1605v-1h-539v-223h539v-1381h223v1381h538v223h-538v1h-223z" />
<glyph unicode="&#x423;" horiz-adv-x="1893" d="M379 220l-110 -194q130 -73 264 -73q72 0 141 21q225 69 346 312l623 1268l-201 98l-587 -1196l-660 1192l-195 -108l716 -1292q-51 -44 -107 -61q-112 -34 -230 33z" />
<glyph unicode="&#x424;" horiz-adv-x="1893" d="M367 1116q143 124 384 149v-926q-241 25 -384 150q-144 125 -144 313q0 189 144 314zM974 1265q241 -25 384 -149q144 -125 144 -314q0 -188 -144 -313q-143 -125 -384 -150v926zM751 0h223v116q337 29 543 216q208 189 208 470q0 282 -208 471q-206 187 -543 216v116 h-223v-116q-337 -29 -543 -216q-208 -189 -208 -471q0 -281 208 -470q206 -187 543 -216v-116z" />
<glyph unicode="&#x425;" horiz-adv-x="1752" d="M1330 1651l-578 -678l-580 678l-169 -145l603 -705l-606 -705l169 -144l583 678l581 -678l169 144l-603 705l601 705z" />
<glyph unicode="&#x426;" horiz-adv-x="1604" d="M1085 1604v-1381h-862v1381h-223v-1604h1245v-201h223v424h-160v1381h-223z" />
<glyph unicode="&#x427;" horiz-adv-x="1394" d="M922 671v-671h222v1605h-222v-642q-59 -76 -123 -105q-63 -28 -170 -28q-22 0 -45 2q-30 2 -59 7q-76 13 -135 44q-167 88 -167 297v425h-223v-425q0 -257 173 -415q174 -158 456 -158q175 0 293 64z" />
<glyph unicode="&#x428;" horiz-adv-x="1692" d="M1219 1605v-1382h-387v1382h-222v-1382h-387v1382h-223v-1605h1442v1605h-223z" />
<glyph unicode="&#x429;" horiz-adv-x="1737" d="M1219 1606v-1381h-386v1381h-223v-1381h-387v1381h-223v-1604h1378v-201h223v424h-159v1381h-223z" />
<glyph unicode="&#x42a;" horiz-adv-x="1940" d="M761 224v600h442q144 0 245 -88t101 -212t-101 -212t-245 -88h-442zM1606 894q-167 153 -403 153h-442v558h-761v-223h539v-1382l664 1q236 0 403 153q166 154 166 370t-166 370z" />
<glyph unicode="&#x42b;" horiz-adv-x="1854" d="M222 824h454q143 0 244 -88t101 -212q0 -125 -101 -213t-244 -88h-454v601zM1078 893q-167 154 -402 154h-454v558h-222v-1605h676q235 0 402 154q166 153 166 370q0 216 -166 369zM1604 1605h-223v-1605h223v1605z" />
<glyph unicode="&#x42c;" horiz-adv-x="1412" d="M222 824h454q143 0 244 -88t101 -212q0 -125 -101 -213t-244 -88h-454v601zM1078 893q-167 154 -402 154h-454v558h-222v-1605h676q235 0 402 154q166 153 166 370q0 216 -166 369z" />
<glyph unicode="&#x42d;" horiz-adv-x="1596" d="M127 317l-127 -183q156 -109 313 -151q113 -31 252 -31q357 0 610 249q120 118 186 271q67 158 67 331q0 172 -67 330q-66 153 -186 271q-119 118 -274 182q-160 67 -336 67q-139 0 -252 -31q-157 -42 -313 -151l127 -183q119 83 230 116q91 26 208 26q234 0 413 -148 q177 -146 217 -368h-684v-223h684q-40 -221 -217 -368q-179 -148 -413 -148t-438 142z" />
<glyph unicode="&#x42e;" horiz-adv-x="2295" d="M1717 1246q187 -184 187 -443q0 -260 -187 -444q-188 -184 -453 -184t-452 184q-188 184 -188 444q0 259 188 443q187 184 452 184t453 -184zM469 472q66 -153 185 -271q120 -117 274 -182q161 -67 336 -67q357 0 610 249q120 118 185 271q68 158 68 331q0 172 -68 330 q-65 153 -185 271q-119 118 -274 182q-161 67 -336 67q-357 0 -610 -249q-119 -118 -185 -271q-42 -98 -58 -201h-188v673h-223v-1605h223v709h183q14 -122 63 -237z" />
<glyph unicode="&#x42f;" horiz-adv-x="1291" d="M819 868h-283q-123 0 -211 75q-87 75 -87 181t87 181q88 76 211 76h283v-513zM819 -1h222v1605h-505q-216 0 -368 -141q-153 -141 -153 -339q0 -165 111 -295q109 -128 279 -169l-405 -582l183 -127l483 694h153v-646z" />
<glyph unicode="&#x430;" horiz-adv-x="1840" d="M698 1604l-698 -1604h250l147 353h797l152 -353h244l-693 1604h-199zM797 1273l301 -698h-604z" />
<glyph unicode="&#x431;" horiz-adv-x="1495" d="M223 824h453q143 0 244 -88q102 -88 102 -212q0 -125 -102 -213q-101 -88 -244 -88h-453v601zM1078 893q-167 154 -402 154h-453v334h852v223l-1075 1v-1605h676q235 0 402 154q167 153 167 370q0 216 -167 369z" />
<glyph unicode="&#x432;" horiz-adv-x="1412" d="M223 765h403q129 0 221 -80q92 -79 92 -191t-92 -192q-92 -79 -221 -79h-403v542zM223 1381h317q89 0 153 -57q63 -58 63 -140q0 -77 -58 -134t-141 -62h-334v393zM1085 748q-74 113 -200 177q94 115 94 259q0 174 -129 297q-128 123 -310 123l-540 1v-1605h626 q221 0 379 145q157 145 157 349q0 137 -77 254z" />
<glyph unicode="&#x433;" horiz-adv-x="1334" d="M0 1605v-1605h223v1381h861v223h-861v1h-223z" />
<glyph unicode="&#x434;" horiz-adv-x="1642" d="M573 1381h551v-1159h-686q135 264 135 680v479zM223 -1h1060v-200h223v423h-160v1382h-996v-702q0 -285 -77 -498q-31 -85 -66 -135q-33 -47 -58 -47h-149v-423h223v200z" />
<glyph unicode="&#x435;" horiz-adv-x="1356" d="M0 1605v-1605h1106v223h-883v568h701v223h-701v367h861v223z" />
<glyph unicode="&#x436;" horiz-adv-x="2245" d="M1825 1414q63 17 108 4l62 214q-104 30 -225 -2q-122 -33 -195 -111q-55 -58 -99 -148q-17 -36 -35 -83l-17 -42l-15 -42q-64 -175 -112 -232q-67 -80 -188 -78v711h-223v-711q-121 -2 -188 78q-47 57 -112 232l-15 42l-16 42q-19 47 -36 83q-44 90 -99 148 q-73 78 -194 111q-122 32 -226 2l62 -214q45 13 108 -4q60 -17 88 -47q52 -55 119 -240l16 -43l18 -45q20 -51 40 -91q52 -102 118 -164l-542 -784h279l463 682q51 -11 110 -11h7v-671h223v671h7q59 0 112 11l478 -682h279l-557 785q65 62 116 164q20 39 41 90l17 45l16 43 q68 185 120 240q28 30 87 47z" />
<glyph unicode="&#x437;" horiz-adv-x="1278" d="M318 261q-41 34 -72 79q-24 35 -41 75l-205 -87q76 -179 228 -278q151 -98 350 -98q220 0 376 154t156 371q0 126 -57 237q-56 108 -154 182q144 130 144 320q0 181 -130 309t-312 128q-155 0 -286 -84q-132 -84 -185 -217l208 -82q27 69 102 114q74 46 161 46 q90 0 155 -63q64 -62 64 -151q0 -88 -64 -151q-65 -62 -155 -62l-112 -1v-222h89q128 0 219 -89q90 -89 90 -214t-90 -213q-91 -89 -219 -89q-156 0 -260 86z" />
<glyph unicode="&#x438;" horiz-adv-x="1721" d="M0 1605v-1605h220l1028 1268v-1268h223v1604h-237l-1011 -1247v1248h-223z" />
<glyph unicode="&#x439;" horiz-adv-x="1721" d="M0 1605v-1605h220l1028 1268v-1268h223v1604h-237l-1011 -1247v1248h-223zM984 1889q103 98 103 235h-178q0 -63 -51 -109q-51 -45 -123 -45t-123 45q-51 46 -51 109h-178q0 -137 103 -235q103 -97 249 -97t249 97z" />
<glyph unicode="&#x43a;" horiz-adv-x="1570" d="M1320 0l-676 813q69 61 131 156q24 37 104 188t138 205q36 33 110 51q79 19 138 4l55 216q-112 29 -244 -3q-132 -31 -211 -105q-57 -54 -195 -288q-97 -185 -163 -248q-107 -101 -284 -95v711h-223v-1604h223v671q132 -1 225 29l564 -701h308z" />
<glyph unicode="&#x43b;" horiz-adv-x="1580" d="M423 1381h684v-1382h223v1605h-1130v-1273q0 -65 -44 -111q-43 -46 -105 -46h-51v-223h51q154 0 263 111q109 112 109 269v1050z" />
<glyph unicode="&#x43c;" horiz-adv-x="1910" d="M1425 1604l-595 -872l-595 872h-235v-1604h223v1227l607 -890l608 890v-1227h222v1604h-235z" />
<glyph unicode="&#x43d;" horiz-adv-x="1632" d="M1159 1605v-613h-936v613h-223v-1605h223v769h936v-769h223v1605h-223z" />
<glyph unicode="&#x43e;" horiz-adv-x="1894" d="M1316 1246q187 -184 187 -443q0 -260 -187 -444q-188 -184 -453 -184t-452 184q-188 184 -188 444q0 259 188 443q187 184 452 184t453 -184zM1473 201q120 118 185 271q68 158 68 331q0 172 -68 330q-65 153 -185 271q-119 118 -274 182q-161 67 -336 67 q-357 0 -610 -249q-119 -118 -185 -271q-68 -158 -68 -330q0 -173 68 -331q66 -153 185 -271q120 -117 274 -182q161 -67 336 -67q357 0 610 249z" />
<glyph unicode="&#x43f;" horiz-adv-x="1420" d="M0 1604v-1604h223v1382h724v-1382h223v1604h-1170z" />
<glyph unicode="&#x440;" horiz-adv-x="1279" d="M223 1381h319q143 0 245 -88q101 -88 101 -212t-101 -212q-102 -88 -245 -88h-319v600zM0 0h223v558h319q235 0 402 153q167 154 167 370t-167 370q-166 153 -402 153l-542 1v-1605z" />
<glyph unicode="&#x441;" horiz-adv-x="1553" d="M1303 316l-1 1q-119 -83 -231 -115q-91 -27 -208 -27q-265 0 -452 184q-188 184 -188 444q0 259 188 443q187 184 452 184q234 0 439 -142l1 1v259q-93 49 -187 74q-114 31 -253 31q-357 0 -610 -249q-119 -118 -185 -271q-68 -158 -68 -330q0 -173 68 -331 q66 -153 185 -271q120 -117 274 -182q161 -67 336 -67q139 0 253 31q94 25 187 74v259z" />
<glyph unicode="&#x442;" horiz-adv-x="1550" d="M539 1605v-1h-539v-223h539v-1381h223v1381h538v223h-538v1h-223z" />
<glyph unicode="&#x443;" horiz-adv-x="1958" d="M419 220l-110 -194q130 -73 264 -73q72 0 141 21q225 69 346 312l648 1318h-256l-557 -1148l-630 1148h-265l756 -1356q-51 -44 -107 -61q-112 -34 -230 33z" />
<glyph unicode="&#x444;" horiz-adv-x="1893" d="M367 1116q143 124 384 149v-926q-241 25 -384 150q-144 125 -144 313q0 189 144 314zM974 1265q241 -25 384 -149q144 -125 144 -314q0 -188 -144 -313q-143 -125 -384 -150v926zM751 0h223v116q337 29 543 216q208 189 208 470q0 282 -208 471q-206 187 -543 216v116 h-223v-116q-337 -29 -543 -216q-208 -189 -208 -471q0 -281 208 -470q206 -187 543 -216v-116z" />
<glyph unicode="&#x445;" horiz-adv-x="1798" d="M1261 1605l-480 -631l-481 631h-298l617 -803l-619 -802h297l484 631l484 -631h283l-616 802l612 803h-283z" />
<glyph unicode="&#x446;" horiz-adv-x="1604" d="M1085 1604v-1381h-862v1381h-223v-1604h1245v-201h223v424h-160v1381h-223z" />
<glyph unicode="&#x447;" horiz-adv-x="1394" d="M922 671v-671h222v1605h-222v-642q-59 -76 -123 -105q-63 -28 -170 -28q-22 0 -45 2q-30 2 -59 7q-76 13 -135 44q-167 88 -167 297v425h-223v-425q0 -257 173 -415q174 -158 456 -158q175 0 293 64z" />
<glyph unicode="&#x448;" horiz-adv-x="1692" d="M1219 1605v-1382h-387v1382h-222v-1382h-387v1382h-223v-1605h1442v1605h-223z" />
<glyph unicode="&#x449;" horiz-adv-x="1737" d="M1219 1606v-1381h-386v1381h-223v-1381h-387v1381h-223v-1604h1378v-201h223v424h-159v1381h-223z" />
<glyph unicode="&#x44a;" horiz-adv-x="2022" d="M761 224v600h442q144 0 245 -88t101 -212t-101 -212t-245 -88h-442zM1606 894q-167 153 -403 153h-442v558h-761v-223h539v-1382l664 1q236 0 403 153q166 154 166 370t-166 370z" />
<glyph unicode="&#x44b;" horiz-adv-x="1854" d="M222 824h454q143 0 244 -88t101 -212q0 -125 -101 -213t-244 -88h-454v601zM1078 893q-167 154 -402 154h-454v558h-222v-1605h676q235 0 402 154q166 153 166 370q0 216 -166 369zM1604 1605h-223v-1605h223v1605z" />
<glyph unicode="&#x44c;" horiz-adv-x="1412" d="M222 824h454q143 0 244 -88t101 -212q0 -125 -101 -213t-244 -88h-454v601zM1078 893q-167 154 -402 154h-454v558h-222v-1605h676q235 0 402 154q166 153 166 370q0 216 -166 369z" />
<glyph unicode="&#x44d;" horiz-adv-x="1471" d="M401 914v-223h670q-33 -189 -179 -332q-187 -184 -452 -184q-117 0 -208 27q-112 32 -231 115l-1 -1v-259q93 -49 187 -74q114 -31 253 -31q175 0 336 67q154 65 274 182q119 118 185 271q68 158 68 331q0 172 -68 330q-66 153 -185 271q-253 249 -610 249 q-139 0 -253 -31q-94 -25 -187 -74v-259l1 -1q205 142 439 142q265 0 452 -184q146 -143 179 -332h-670z" />
<glyph unicode="&#x44e;" horiz-adv-x="2295" d="M1717 1246q187 -184 187 -443q0 -260 -187 -444q-188 -184 -453 -184t-452 184q-188 184 -188 444q0 259 188 443q187 184 452 184t453 -184zM469 472q66 -153 185 -271q120 -117 274 -182q161 -67 336 -67q357 0 610 249q120 118 185 271q68 158 68 331q0 172 -68 330 q-65 153 -185 271q-119 118 -274 182q-161 67 -336 67q-357 0 -610 -249q-119 -118 -185 -271q-42 -98 -58 -201h-188v673h-223v-1605h223v709h183q14 -122 63 -237z" />
<glyph unicode="&#x44f;" horiz-adv-x="1348" d="M875 868h-283q-123 0 -210 75t-87 181t87 181q87 76 210 76h283v-513zM271 -1l451 646h153v-646h223v1605h-506q-215 0 -368 -141q-152 -141 -152 -339q0 -165 111 -295q109 -128 278 -169l-461 -661h271z" />
<glyph unicode="&#x450;" horiz-adv-x="1356" d="M0 1605v-1605h1106v223h-883v568h701v223h-701v367h861v223zM231 2123l374 -331l109 126l-374 331z" />
<glyph unicode="&#x451;" horiz-adv-x="1356" d="M0 1605v-1605h1106v223h-883v568h701v223h-701v367h861v224h-1084zM182 1972h179v-178h-179v178zM744 1972h179v-178h-179v178z" />
<glyph unicode="&#x452;" horiz-adv-x="1946" d="M539 -1h222v661q59 76 123 105q63 29 170 29q133 0 235 -55q122 -64 157 -189q22 -75 10 -155q-11 -81 -51 -137q-55 -77 -152 -83h-48v-223h56q207 11 326 177q70 98 90 228q19 130 -17 255q-53 184 -218 294q-164 110 -388 110q-176 0 -293 -63v427h539v223h-1300v-223 h539v-1381z" />
<glyph unicode="&#x453;" horiz-adv-x="1334" d="M0 1605v-1605h223v1381h861v223h-861v1h-223zM755 2249l-374 -331l109 -126l374 331z" />
<glyph unicode="&#x454;" horiz-adv-x="1553" d="M232 914q33 189 179 332q187 184 452 184q234 0 439 -142l1 1v259q-93 49 -187 74q-114 31 -253 31q-357 0 -610 -249q-119 -118 -185 -271q-68 -158 -68 -330q0 -173 68 -331q66 -153 185 -271q120 -117 274 -182q161 -67 336 -67q139 0 253 31q94 25 187 74v259l-1 1 q-119 -83 -231 -115q-91 -27 -208 -27q-265 0 -452 184q-146 143 -179 332h670v223h-670z" />
<glyph unicode="&#x455;" horiz-adv-x="1321" d="M1058 198q95 157 47 341q-43 165 -190 278q-58 44 -140 87q-33 17 -74 37l-37 17l-36 16l-59 27q-216 100 -267 196q-19 33 -16 66q1 12 5 25l4 10l3 8q24 56 76 87q39 24 92 33q89 15 182 -14t146 -88l166 149q-92 102 -238 150q-147 47 -292 23q-247 -41 -337 -253 q-148 -348 381 -594h1l3 -1l58 -27q163 -74 226 -118q102 -73 127 -170q24 -93 -22 -169q-57 -95 -193 -126q-140 -32 -274 13t-232 157l-168 -146q110 -126 252 -192t295 -68q359 0 511 246z" />
<glyph unicode="&#x456;" d="M0 0h223v1605h-223v-1605z" />
<glyph unicode="&#x457;" horiz-adv-x="998" d="M0 0h223v1605h-223v-1605zM-229 1971h179v-178h-179v178zM273 1971h179v-178h-179v178z" />
<glyph unicode="&#x458;" horiz-adv-x="1087" d="M710 76q127 125 127 301v1227h-223v-1227q0 -84 -61 -144q-61 -59 -147 -59q-66 0 -120 37q-55 37 -77 97l-209 -77q46 -125 158 -203q112 -77 248 -77q178 0 304 125z" />
<glyph unicode="&#x459;" horiz-adv-x="2408" d="M1218 823h454q143 0 244 -88q102 -88 102 -212t-102 -212q-101 -88 -244 -88h-454v600zM423 1381h573v-1381h676q235 0 402 153q166 154 166 370t-166 370q-167 153 -402 153h-454v558h-222v0h-796v-1273q0 -65 -44 -111q-43 -46 -104 -46h-52v-223h52q153 0 262 111 q109 112 109 269v1050z" />
<glyph unicode="&#x45a;" horiz-adv-x="2360" d="M1170 824h454q143 0 244 -88t101 -212q0 -125 -101 -213t-244 -88h-454v601zM948 0h676q235 0 402 154q166 153 166 370q0 216 -166 369q-167 154 -402 154h-454v558h-222v-558h-725v558h-223v-1605h223v824h725v-824z" />
<glyph unicode="&#x45b;" horiz-adv-x="1933" d="M1099 793q30 -2 59 -7q76 -14 135 -44q167 -88 167 -298v-444h223v444q0 258 -173 416t-456 158q-176 0 -293 -64v427h539v223h-539v1h-222v-1h-539v-223h539v-1381h222v661q59 77 123 106q63 28 170 28q22 0 45 -2z" />
<glyph unicode="&#x45c;" horiz-adv-x="1570" d="M1320 0l-676 813q69 61 131 156q24 37 104 188t138 205q36 33 110 51q79 19 138 4l55 216q-112 29 -244 -3q-132 -31 -211 -105q-57 -54 -195 -288q-97 -185 -163 -248q-107 -101 -284 -95v711h-223v-1604h223v671q132 -1 225 29l564 -701h308zM873 2250l-374 -331 l109 -126l374 331z" />
<glyph unicode="&#x45d;" horiz-adv-x="1721" d="M0 1605v-1605h220l1028 1268v-1268h223v1604h-237l-1011 -1247v1248h-223zM414 2123l374 -331l109 126l-374 331z" />
<glyph unicode="&#x45e;" horiz-adv-x="1958" d="M419 220l-110 -194q130 -73 264 -73q72 0 141 21q225 69 346 312l648 1318h-256l-557 -1148l-630 1148h-265l756 -1356q-51 -44 -107 -61q-112 -34 -230 33zM1081 1889q103 98 103 235h-178q0 -64 -51 -109t-123 -45t-123 45t-51 109h-179q0 -137 104 -235 q103 -97 249 -97q145 0 249 97z" />
<glyph unicode="&#x45f;" horiz-adv-x="1518" d="M1045 1604v-1381h-822v1381h-223v-1604h523v-201h222v201h523v1604h-223z" />
<glyph unicode="&#x490;" horiz-adv-x="1334" d="M862 1811v-207h-639v1h-223v-1605h223v1381h861v430h-222z" />
<glyph unicode="&#x491;" horiz-adv-x="1334" d="M862 1811v-207h-639v1h-223v-1605h223v1381h861v430h-222z" />
<glyph unicode="&#x1e80;" horiz-adv-x="2467" d="M2006 1652l-407 -1243l-389 1195h-200l-391 -1195l-407 1240l-212 -69l518 -1580h201l391 1192l388 -1192h201l518 1582zM787 2123l374 -331l109 126l-374 331z" />
<glyph unicode="&#x1e81;" horiz-adv-x="2481" d="M1997 1609l-391 -1200l-389 1195h-200l-391 -1195l-392 1200h-234l525 -1609h201l391 1192l388 -1192h201l525 1609h-234zM794 2124l374 -331l109 126l-374 331z" />
<glyph unicode="&#x1e82;" horiz-adv-x="2467" d="M2006 1652l-407 -1243l-389 1195h-200l-391 -1195l-407 1240l-212 -69l518 -1580h201l391 1192l388 -1192h201l518 1582zM1322 2249l-374 -331l109 -126l374 331z" />
<glyph unicode="&#x1e83;" horiz-adv-x="2481" d="M1997 1609l-391 -1200l-389 1195h-200l-391 -1195l-392 1200h-234l525 -1609h201l391 1192l388 -1192h201l525 1609h-234zM1329 2250l-374 -331l109 -126l374 331z" />
<glyph unicode="&#x1ef2;" horiz-adv-x="1648" d="M1217 1652l-518 -723l-518 723l-181 -130l589 -823v-699h223v704l586 818zM377 2123l374 -331l109 126l-374 331z" />
<glyph unicode="&#x1ef3;" horiz-adv-x="1767" d="M1233 1604l-474 -675l-483 675h-276l649 -905v-699h223v704l645 900h-284zM437 2124l374 -331l109 126l-374 331z" />
<glyph unicode="&#x2000;" horiz-adv-x="1153" />
<glyph unicode="&#x2001;" horiz-adv-x="2307" />
<glyph unicode="&#x2002;" horiz-adv-x="1153" />
<glyph unicode="&#x2003;" horiz-adv-x="2307" />
<glyph unicode="&#x2004;" horiz-adv-x="769" />
<glyph unicode="&#x2005;" horiz-adv-x="576" />
<glyph unicode="&#x2006;" horiz-adv-x="384" />
<glyph unicode="&#x2007;" horiz-adv-x="384" />
<glyph unicode="&#x2008;" horiz-adv-x="288" />
<glyph unicode="&#x2009;" horiz-adv-x="461" />
<glyph unicode="&#x200a;" horiz-adv-x="128" />
<glyph unicode="&#x2010;" horiz-adv-x="989" d="M739 934v-223h-739v223h739z" />
<glyph unicode="&#x2011;" horiz-adv-x="989" d="M739 934v-223h-739v223h739z" />
<glyph unicode="&#x2012;" horiz-adv-x="989" d="M739 934v-223h-739v223h739z" />
<glyph unicode="&#x2013;" horiz-adv-x="1356" d="M0 911v-178h1106v178h-1106z" />
<glyph unicode="&#x2014;" horiz-adv-x="1864" d="M0 911v-178h1614v178h-1614z" />
<glyph unicode="&#x2018;" horiz-adv-x="428" d="M178 1258v177h-71l71 171h-61l-117 -171v-177h178z" />
<glyph unicode="&#x2019;" horiz-adv-x="428" d="M0 1606v-177h71l-71 -171h61l117 171v177h-178z" />
<glyph unicode="&#x201a;" horiz-adv-x="428" d="M0 177v-177h71l-71 -171h61l117 171v177h-178z" />
<glyph unicode="&#x201c;" horiz-adv-x="708" d="M458 1258v177h-71l71 171h-61l-117 -171v-177h178zM178 1258v177h-71l71 171h-61l-117 -171v-177h178z" />
<glyph unicode="&#x201d;" horiz-adv-x="708" d="M0 1606v-177h71l-71 -171h61l117 171v177h-178zM280 1606v-177h71l-71 -171h61l117 171v177h-178z" />
<glyph unicode="&#x201e;" horiz-adv-x="708" d="M0 177v-177h71l-71 -171h61l117 171v177h-178zM280 177v-177h71l-71 -171h61l117 171v177h-178z" />
<glyph unicode="&#x2020;" horiz-adv-x="875" d="M625 1235v123h-251v247h-123v-247h-251v-123h251v-929h123v929h251z" />
<glyph unicode="&#x2021;" horiz-adv-x="875" d="M374 1605h-123v-247h-251v-123h251v-559h-251v-124h251v-246h123v246h251v124h-251v559h251v123h-251v247z" />
<glyph unicode="&#x2022;" horiz-adv-x="650" d="M200 1055q83 0 141.5 -58.5t58.5 -141.5t-58.5 -141.5t-141.5 -58.5t-141.5 58.5t-58.5 141.5t58.5 141.5t141.5 58.5z" />
<glyph unicode="&#x2026;" horiz-adv-x="1554" d="M0 0h178v177h-178v-177zM563 0h178v177h-178v-177zM1126 0h178v177h-178v-177z" />
<glyph unicode="&#x202f;" horiz-adv-x="461" />
<glyph unicode="&#x2030;" horiz-adv-x="2466" d="M258 1280q36 34 86 34t86 -34q36 -35 36 -83q0 -49 -36 -83q-36 -35 -86 -35t-86 35q-35 34 -35 83q0 48 35 83zM587 1437q-101 100 -243 100t-243 -100t-101 -240q0 -141 101 -241t243 -100t243 100t101 241q0 140 -101 240zM1198 302q-36 -35 -86 -35t-86 35 q-36 34 -36 83q0 48 36 83q36 34 86 34t86 -34q35 -35 35 -83q0 -49 -35 -83zM868 144q101 -100 244 -100q142 0 243 100t101 241q0 140 -101 240t-243 100q-143 0 -244 -100t-101 -240q0 -141 101 -241zM1212 1461l-196 106l-792 -1450l196 -107zM1958 302q-36 -35 -86 -35 t-86 35q-36 34 -36 83q0 48 36 83q36 34 86 34t86 -34q35 -35 35 -83q0 -49 -35 -83zM1628 144q101 -100 244 -100q142 0 243 100t101 241q0 140 -101 240t-243 100q-143 0 -244 -100t-101 -240q0 -141 101 -241z" />
<glyph unicode="&#x2039;" horiz-adv-x="755" d="M505 1190l-260 -404l259 -403h-244l-260 403l261 404h244z" />
<glyph unicode="&#x203a;" horiz-adv-x="755" d="M245 1190l260 -404l-259 -403h-245l260 403l-261 404h245z" />
<glyph unicode="&#x2044;" horiz-adv-x="1231" d="M1008 1527l-843 -1554l-192 104l843 1554z" />
<glyph unicode="&#x205f;" horiz-adv-x="576" />
<glyph unicode="&#x20a3;" horiz-adv-x="1353" d="M1 510v1095h1102v-219h-884v-419h724v-218h-724v-239h225v-218h-225v-292h-218v292h-80v218h80z" />
<glyph unicode="&#x20a7;" horiz-adv-x="3293" d="M176 760h299q135 0 230 94q96 92 96 223t-96 224q-95 92 -230 92h-299v-633zM897 1393q100 -115 100 -316q0 -220 -152 -375q-153 -156 -370 -156h-299v-550h-196v1612h495q209 0 325 -113v113h1216v-88q61 91 261 125q147 25 293 -22q147 -48 253 -165l-160 -142 q-67 75 -163 105q-95 30 -187 14q-56 -9 -98 -35q-53 -32 -77 -90l-4 -9l-4 -10q-4 -13 -6 -25q-3 -32 14 -65q50 -101 277 -206l60 -27l36 -17l36 -16q41 -19 74 -36q83 -43 141 -87q150 -114 193 -279q48 -184 -47 -340q-106 -175 -335 -226q-83 -19 -166 -19 q-160 0 -305 67q-146 67 -269 208l161 139q113 -128 251 -174q137 -47 281 -14q140 32 199 130q48 79 24 175q-27 100 -128 172q-64 46 -235 123q-20 8 -61 28q-532 245 -384 592q6 15 -2 -1h-424v-1397h-214v1397h-404z" />
<glyph unicode="&#x20ac;" horiz-adv-x="1368" d="M1118 -20l-31 221q-55 -8 -118 -8q-188 0 -347 100q-154 98 -232 260h415l62 223h-536q-2 27 -2 45q0 17 2 44h560l62 223h-563q78 162 232 260q159 100 347 100q64 0 118 -7l31 220q-70 10 -149 10q-282 0 -509 -164q-223 -162 -310 -419h-150v-223h107l-1 -44l1 -45 h-107v-223h150q87 -257 310 -418q227 -165 509 -165q79 0 149 10z" />
<glyph unicode="&#x2122;" horiz-adv-x="1118" d="M0 1892v-85h148v-334h92v334h147v85h-387zM779 1893l-124 -196l-123 196h-89v-420h92v245l120 -189l121 189v-245h92v420h-89z" />
<glyph unicode="&#x2153;" horiz-adv-x="1242" d="M965 645q0 74 -53 127q-53 52 -128 52q-62 0 -116 -34q-53 -34 -75 -88l97 -39q10 24 37 40q27 17 57 17q32 0 54 -22q23 -22 23 -53q0 -30 -23 -52q-22 -22 -54 -22h-24v0h-19v-104h35q46 0 78 -32q33 -32 33 -77t-33 -77q-32 -32 -78 -32q-56 0 -93 29q-29 22 -44 59 l-97 -41q31 -72 92 -112t142 -40q89 0 152 63q64 63 64 151q0 98 -78 163q51 52 51 124zM26 1335l62 16v-462h105v596l-193 -49zM36 318l77 -50l702 1096l-78 50z" />
<glyph unicode="&#x2154;" horiz-adv-x="1373" d="M1097 631q0 74 -53 126t-128 52q-63 0 -116 -34q-54 -34 -75 -88l97 -39q9 24 36 41q27 16 58 16t54 -22q22 -22 22 -52q0 -31 -22 -53q-23 -21 -54 -21h-24v-1h-19v-104h34q46 0 79 -32t33 -77t-33 -77t-79 -32q-56 0 -93 29q-28 22 -44 59l-96 -41q31 -72 92 -112 q61 -39 141 -39q89 0 153 62q63 63 63 151q0 98 -78 163q52 52 52 125zM207 303l77 -49l701 1096l-77 49zM285 1491q-49 29 -103 29q-116 0 -182 -105l89 -56q35 57 93 57q25 0 50 -15q38 -22 48 -64q11 -45 -14 -85l-238 -358h373v105h-178l131 197q49 78 28 165 q-21 85 -97 130z" />
<glyph unicode="&#x2202;" horiz-adv-x="1251" d="M253 254q-64 75 -47 184q19 118 119 203q101 86 220 86q113 0 177 -76q64 -75 47 -185q-19 -117 -119 -202q-101 -86 -220 -86q-112 0 -177 76zM644 1398q-90 7 -198 -45q-101 -49 -156 -117l137 -113q32 38 97 69q64 31 106 28q77 -6 120 -63q75 -101 65 -350 q-114 98 -270 98q-187 0 -336 -127q-150 -127 -179 -312q-30 -190 87 -328q119 -138 313 -138q186 0 334 125t180 308q19 85 32 172q17 119 19 225q6 287 -102 433q-91 123 -249 135z" />
<glyph unicode="&#x2206;" horiz-adv-x="1874" d="M16 0l720 1604h211l724 -1603zM1305 240l-464 1007l-456 -1007h920z" />
<glyph unicode="&#x220f;" horiz-adv-x="1504" d="M1284 1604v-2054h-238v1815h-798v-1815h-238v2054h1274z" />
<glyph unicode="&#x2211;" horiz-adv-x="1506" d="M1286 1604v-238h-966l691 -787l-691 -787h966v-238h-1276v245l684 780l-684 780v245h1276z" />
<glyph unicode="&#x221a;" horiz-adv-x="1324" d="M1001 1848l-506 -1661l-280 678l-215 -92l30 -70l143 61l333 -804l568 1866z" />
<glyph unicode="&#x221e;" horiz-adv-x="1475" d="M939 699q72 0 122 40q50 41 52 102q0 57 -43 98q-46 44 -118 44q-75 0 -151 -47q-31 -19 -64 -47l-30 -25l-29 -25q32 -30 54 -47q33 -27 62 -45q75 -48 144 -48h1zM283 983q-77 0 -123 -36q-51 -40 -49 -109q3 -58 52 -99q50 -40 120 -40q68 7 130 44q36 23 133 102 l-10 9l-13 9q-16 14 -27 22q-34 28 -62 45q-84 53 -149 53h-2zM0 841q0 94 75 158q75 63 188 63q100 0 191 -49q37 -20 80 -52l38 -31l38 -30q93 80 154 113q89 49 184 49q119 0 198 -64t79 -157q0 -92 -78 -155t-190 -63q-101 0 -195 51q-37 20 -79 51l-36 28l-34 28 q-184 -158 -328 -158q-119 0 -201 59q-84 61 -84 157v2z" />
<glyph unicode="&#x222b;" horiz-adv-x="807" d="M557 1783q-36 10 -75 10q-111 0 -189 -78q-79 -78 -79 -187l2 -1302q0 -61 -44 -105q-45 -44 -107 -44q-35 0 -65 14v-123q31 -8 65 -8q111 0 189 78q79 78 79 188l-2 1302q0 61 44 105q45 43 107 43q40 0 75 -19v126z" />
<glyph unicode="&#x2248;" horiz-adv-x="1325" d="M625 890q-32 11 -71 26q-173 71 -199 78q-62 18 -86 8q-25 -12 -56 -104l-226 76q64 190 184 244q90 41 209 15l197 -69q46 -19 69 -28q38 -15 66 -23q63 -18 87 -7q30 14 63 116l226 -73q-64 -202 -189 -259q-57 -26 -124 -26t-150 26zM625 441q-32 11 -71 26 q-173 71 -199 78q-62 18 -86 8q-25 -12 -56 -104l-226 76q64 190 184 244q90 41 209 15l197 -69q46 -19 69 -28q38 -15 66 -23q63 -18 87 -7q30 14 63 116l226 -73q-64 -202 -189 -259q-57 -26 -124 -26t-150 26z" />
<glyph unicode="&#x2264;" horiz-adv-x="1087" d="M555 1385l-555 -524l555 -524l122 130l-417 394l417 394zM0 178v-178h837v178h-837z" />
<glyph unicode="&#x2265;" horiz-adv-x="1087" d="M0 1255l418 -394l-418 -394l122 -130l555 524l-555 524zM0 178v-178h837v178h-837z" />
<glyph unicode="&#x25fc;" horiz-adv-x="1605" d="M0 1605h1605v-1605h-1605v1605z" />
</font>
</defs>
</svg>
